<?xml version="1.0" encoding="UTF-8" standalone="no"?>
<!DOCTYPE svg PUBLIC "-//W3C//DTD SVG 1.1//EN"
 "http://www.w3.org/Graphics/SVG/1.1/DTD/svg11.dtd">
<!-- Generated by graphviz version 2.40.1 (20161225.0304)
 -->
<!-- Title: dependency&#45;cruiser output Pages: 1 -->
<svg width="1302pt" height="337pt"
 viewBox="0.00 0.00 1302.00 337.00" xmlns="http://www.w3.org/2000/svg" xmlns:xlink="http://www.w3.org/1999/xlink">
<g id="graph0" class="graph" transform="scale(1 1) rotate(0) translate(4 333)">
<title>dependency&#45;cruiser output</title>
<polygon fill="#ffffff" stroke="transparent" points="-4,4 -4,-333 1298,-333 1298,4 -4,4"/>
<g id="clust1" class="cluster">
<title>cluster_src</title>
<polygon fill="#ffffff" stroke="#000000" stroke-width=".4" points="8,-8 8,-321 1160,-321 1160,-8 8,-8"/>
<text text-anchor="middle" x="584" y="-310.6" font-family="monospace" font-size="8.00" fill="#000000">src</text>
</g>
<g id="clust2" class="cluster">
<title>cluster_src/components</title>
<polygon fill="#ffffff" stroke="#000000" stroke-width=".4" points="574,-166 574,-214 1152,-214 1152,-166 574,-166"/>
<text text-anchor="middle" x="863" y="-203.6" font-family="monospace" font-size="8.00" fill="#000000">components</text>
</g>
<g id="clust3" class="cluster">
<title>cluster_src/io</title>
<polygon fill="#ffffff" stroke="#000000" stroke-width=".4" points="80,-222 80,-270 294,-270 294,-222 80,-222"/>
<text text-anchor="middle" x="187" y="-259.6" font-family="monospace" font-size="8.00" fill="#000000">io</text>
</g>
<g id="clust4" class="cluster">
<title>cluster_src/looks</title>
<polygon fill="#ffffff" stroke="#000000" stroke-width=".4" points="1010,-59 1010,-158 1080,-158 1080,-59 1010,-59"/>
<text text-anchor="middle" x="1045" y="-147.6" font-family="monospace" font-size="8.00" fill="#000000">looks</text>
</g>
<g id="clust5" class="cluster">
<title>cluster_src/results</title>
<polygon fill="#ffffff" stroke="#000000" stroke-width=".4" points="440,-59 440,-158 598,-158 598,-59 440,-59"/>
<text text-anchor="middle" x="519" y="-147.6" font-family="monospace" font-size="8.00" fill="#000000">results</text>
</g>
<g id="clust6" class="cluster">
<title>cluster_src/states</title>
<polygon fill="#ffffff" stroke="#000000" stroke-width=".4" points="390,-166 390,-270 532,-270 532,-166 390,-166"/>
<text text-anchor="middle" x="461" y="-259.6" font-family="monospace" font-size="8.00" fill="#000000">states</text>
</g>
<!-- chalk -->
<g id="node1" class="node">
<title>chalk</title>
<g id="a_node1"><a xlink:href="chalk" xlink:title="chalk">
<polygon fill="#f6f6aa" stroke="transparent" stroke-width=".4" points="1294,-31 1240,-31 1240,-16 1294,-16 1294,-31"/>
<text text-anchor="middle" x="1267" y="-22.2" font-family="monospace" font-size="6.00" fill="#000000">chalk</text>
</a>
</g>
</g>
<!-- fs -->
<g id="node2" class="node">
<title>fs</title>
<polygon fill="#f6f6aa" stroke="transparent" stroke-width=".4" points="1222,-31 1168,-31 1168,-16 1222,-16 1222,-31"/>
<text text-anchor="middle" x="1195" y="-22.2" font-family="monospace" font-size="6.00" fill="#000000">fs</text>
</g>
<!-- src/components/Entries.js -->
<g id="node3" class="node">
<title>src/components/Entries.js</title>
<g id="a_node3"><a xlink:href="src/components/Entries.js" xlink:title="Entries.js">
<polygon fill="#f6f6aa" stroke="transparent" stroke-width=".4" points="1000,-189 946,-189 946,-174 1000,-174 1000,-189"/>
<text text-anchor="middle" x="973" y="-180.2" font-family="monospace" font-size="6.00" fill="#000000">Entries.js</text>
</a>
</g>
</g>
<!-- src/components/Entry.js -->
<g id="node4" class="node">
<title>src/components/Entry.js</title>
<g id="a_node4"><a xlink:href="src/components/Entry.js" xlink:title="Entry.js">
<polygon fill="#f6f6aa" stroke="transparent" stroke-width=".4" points="852,-189 798,-189 798,-174 852,-174 852,-189"/>
<text text-anchor="middle" x="825" y="-180.2" font-family="monospace" font-size="6.00" fill="#000000">Entry.js</text>
</a>
</g>
</g>
<!-- src/looks/style.js -->
<g id="node5" class="node">
<title>src/looks/style.js</title>
<g id="a_node5"><a xlink:href="src/looks/style.js" xlink:title="style.js">
<polygon fill="#f6f6aa" stroke="transparent" stroke-width=".4" points="1072,-133 1018,-133 1018,-118 1072,-118 1072,-133"/>
<text text-anchor="middle" x="1045" y="-124.2" font-family="monospace" font-size="6.00" fill="#000000">style.js</text>
</a>
</g>
</g>
<!-- src/components/Entry.js&#45;&gt;src/looks/style.js -->
<g id="edge1" class="edge">
<title>src/components/Entry.js&#45;&gt;src/looks/style.js</title>
<path fill="none" stroke="#6677dd" stroke-width=".7" stroke-opacity="0.666667" d="M825,-173.922C825,-158.9469 825,-127 825,-127 825,-127 1012.5817,-127 1012.5817,-127"/>
<polygon fill="#6677dd" fill-opacity="0.666667" stroke="#6677dd" stroke-width=".7" stroke-opacity="0.666667" points="1012.5817,-128.7501 1017.5817,-127 1012.5816,-125.2501 1012.5817,-128.7501"/>
</g>
<!-- src/looks/style.js&#45;&gt;chalk -->
<g id="edge17" class="edge">
<title>src/looks/style.js&#45;&gt;chalk</title>
<path fill="none" stroke="#6677dd" stroke-width=".7" stroke-opacity="0.666667" d="M1072.4059,-125C1133.5954,-125 1276,-125 1276,-125 1276,-125 1276,-36.129 1276,-36.129"/>
<polygon fill="#6677dd" fill-opacity="0.666667" stroke="#6677dd" stroke-width=".7" stroke-opacity="0.666667" points="1277.7501,-36.129 1276,-31.129 1274.2501,-36.129 1277.7501,-36.129"/>
</g>
<!-- src/looks/theme.js -->
<g id="node22" class="node">
<title>src/looks/theme.js</title>
<g id="a_node22"><a xlink:href="src/looks/theme.js" xlink:title="theme.js">
<polygon fill="#f6f6aa" stroke="transparent" stroke-width=".4" points="1072,-82 1018,-82 1018,-67 1072,-67 1072,-82"/>
<text text-anchor="middle" x="1045" y="-73.2" font-family="monospace" font-size="6.00" fill="#000000">theme.js</text>
</a>
</g>
</g>
<!-- src/looks/style.js&#45;&gt;src/looks/theme.js -->
<g id="edge16" class="edge">
<title>src/looks/style.js&#45;&gt;src/looks/theme.js</title>
<path fill="none" stroke="#6677dd" stroke-width=".7" stroke-opacity="0.666667" d="M1045,-117.9748C1045,-117.9748 1045,-87.0561 1045,-87.0561"/>
<polygon fill="#6677dd" fill-opacity="0.666667" stroke="#6677dd" stroke-width=".7" stroke-opacity="0.666667" points="1046.7501,-87.0561 1045,-82.0561 1043.2501,-87.0561 1046.7501,-87.0561"/>
</g>
<!-- strip&#45;ansi -->
<g id="node23" class="node">
<title>strip&#45;ansi</title>
<g id="a_node23"><a xlink:href="strip-ansi" xlink:title="strip&#45;ansi">
<polygon fill="#f6f6aa" stroke="transparent" stroke-width=".4" points="1222,-82 1168,-82 1168,-67 1222,-67 1222,-82"/>
<text text-anchor="middle" x="1195" y="-73.2" font-family="monospace" font-size="6.00" fill="#000000">strip&#45;ansi</text>
</a>
</g>
</g>
<!-- src/looks/style.js&#45;&gt;strip&#45;ansi -->
<g id="edge18" class="edge">
<title>src/looks/style.js&#45;&gt;strip&#45;ansi</title>
<path fill="none" stroke="#6677dd" stroke-width=".7" stroke-opacity="0.666667" d="M1072.1639,-121C1115.3897,-121 1195,-121 1195,-121 1195,-121 1195,-87.1785 1195,-87.1785"/>
<polygon fill="#6677dd" fill-opacity="0.666667" stroke="#6677dd" stroke-width=".7" stroke-opacity="0.666667" points="1196.7501,-87.1785 1195,-82.1785 1193.2501,-87.1786 1196.7501,-87.1785"/>
</g>
<!-- src/components/Failures.js -->
<g id="node6" class="node">
<title>src/components/Failures.js</title>
<g id="a_node6"><a xlink:href="src/components/Failures.js" xlink:title="Failures.js">
<polygon fill="#f6f6aa" stroke="transparent" stroke-width=".4" points="928,-189 870,-189 870,-174 928,-174 928,-189"/>
<text text-anchor="middle" x="899" y="-180.2" font-family="monospace" font-size="6.00" fill="#000000">Failures.js</text>
</a>
</g>
</g>
<!-- src/components/Failures.js&#45;&gt;src/looks/style.js -->
<g id="edge2" class="edge">
<title>src/components/Failures.js&#45;&gt;src/looks/style.js</title>
<path fill="none" stroke="#6677dd" stroke-width=".7" stroke-opacity="0.666667" d="M899,-173.901C899,-159.5754 899,-130 899,-130 899,-130 1012.8807,-130 1012.8807,-130"/>
<polygon fill="#6677dd" fill-opacity="0.666667" stroke="#6677dd" stroke-width=".7" stroke-opacity="0.666667" points="1012.8807,-131.7501 1017.8807,-130 1012.8806,-128.2501 1012.8807,-131.7501"/>
</g>
<!-- src/components/Loading.js -->
<g id="node7" class="node">
<title>src/components/Loading.js</title>
<g id="a_node7"><a xlink:href="src/components/Loading.js" xlink:title="Loading.js">
<polygon fill="#f6f6aa" stroke="transparent" stroke-width=".4" points="780,-189 726,-189 726,-174 780,-174 780,-189"/>
<text text-anchor="middle" x="753" y="-180.2" font-family="monospace" font-size="6.00" fill="#000000">Loading.js</text>
</a>
</g>
</g>
<!-- src/components/Log.js -->
<g id="node8" class="node">
<title>src/components/Log.js</title>
<g id="a_node8"><a xlink:href="src/components/Log.js" xlink:title="Log.js">
<polygon fill="#f6f6aa" stroke="transparent" stroke-width=".4" points="636,-189 582,-189 582,-174 636,-174 636,-189"/>
<text text-anchor="middle" x="609" y="-180.2" font-family="monospace" font-size="6.00" fill="#000000">Log.js</text>
</a>
</g>
</g>
<!-- src/components/Log.js&#45;&gt;src/looks/style.js -->
<g id="edge3" class="edge">
<title>src/components/Log.js&#45;&gt;src/looks/style.js</title>
<path fill="none" stroke="#6677dd" stroke-width=".7" stroke-opacity="0.666667" d="M613,-173.8376C613,-157.5579 613,-121 613,-121 613,-121 1012.9765,-121 1012.9765,-121"/>
<polygon fill="#6677dd" fill-opacity="0.666667" stroke="#6677dd" stroke-width=".7" stroke-opacity="0.666667" points="1012.9765,-122.7501 1017.9765,-121 1012.9764,-119.2501 1012.9765,-122.7501"/>
</g>
<!-- src/components/Report.js -->
<g id="node9" class="node">
<title>src/components/Report.js</title>
<g id="a_node9"><a xlink:href="src/components/Report.js" xlink:title="Report.js">
<polygon fill="#f6f6aa" stroke="transparent" stroke-width=".4" points="708,-189 654,-189 654,-174 708,-174 708,-189"/>
<text text-anchor="middle" x="681" y="-180.2" font-family="monospace" font-size="6.00" fill="#000000">Report.js</text>
</a>
</g>
</g>
<!-- src/components/Report.js&#45;&gt;src/looks/style.js -->
<g id="edge4" class="edge">
<title>src/components/Report.js&#45;&gt;src/looks/style.js</title>
<path fill="none" stroke="#6677dd" stroke-width=".7" stroke-opacity="0.666667" d="M696.5,-173.9829C696.5,-158.3968 696.5,-124 696.5,-124 696.5,-124 1012.9438,-124 1012.9438,-124"/>
<polygon fill="#6677dd" fill-opacity="0.666667" stroke="#6677dd" stroke-width=".7" stroke-opacity="0.666667" points="1012.9438,-125.7501 1017.9438,-124 1012.9437,-122.2501 1012.9438,-125.7501"/>
</g>
<!-- src/components/Summary.js -->
<g id="node10" class="node">
<title>src/components/Summary.js</title>
<g id="a_node10"><a xlink:href="src/components/Summary.js" xlink:title="Summary.js">
<polygon fill="#f6f6aa" stroke="transparent" stroke-width=".4" points="1144,-189 1090,-189 1090,-174 1144,-174 1144,-189"/>
<text text-anchor="middle" x="1117" y="-180.2" font-family="monospace" font-size="6.00" fill="#000000">Summary.js</text>
</a>
</g>
</g>
<!-- src/components/Summary.js&#45;&gt;src/looks/style.js -->
<g id="edge5" class="edge">
<title>src/components/Summary.js&#45;&gt;src/looks/style.js</title>
<path fill="none" stroke="#6677dd" stroke-width=".7" stroke-opacity="0.666667" d="M1117,-173.7534C1117,-159.1497 1117,-129 1117,-129 1117,-129 1077.2201,-129 1077.2201,-129"/>
<polygon fill="#6677dd" fill-opacity="0.666667" stroke="#6677dd" stroke-width=".7" stroke-opacity="0.666667" points="1077.2201,-127.2501 1072.2201,-129 1077.2201,-130.7501 1077.2201,-127.2501"/>
</g>
<!-- src/components/Title.js -->
<g id="node11" class="node">
<title>src/components/Title.js</title>
<g id="a_node11"><a xlink:href="src/components/Title.js" xlink:title="Title.js">
<polygon fill="#f6f6aa" stroke="transparent" stroke-width=".4" points="1072,-189 1018,-189 1018,-174 1072,-174 1072,-189"/>
<text text-anchor="middle" x="1045" y="-180.2" font-family="monospace" font-size="6.00" fill="#000000">Title.js</text>
</a>
</g>
</g>
<!-- src/components/Title.js&#45;&gt;src/looks/style.js -->
<g id="edge6" class="edge">
<title>src/components/Title.js&#45;&gt;src/looks/style.js</title>
<path fill="none" stroke="#6677dd" stroke-width=".7" stroke-opacity="0.666667" d="M1045,-173.7134C1045,-173.7134 1045,-138.2204 1045,-138.2204"/>
<polygon fill="#6677dd" fill-opacity="0.666667" stroke="#6677dd" stroke-width=".7" stroke-opacity="0.666667" points="1046.7501,-138.2204 1045,-133.2204 1043.2501,-138.2205 1046.7501,-138.2204"/>
</g>
<!-- src/events.js -->
<g id="node12" class="node">
<title>src/events.js</title>
<g id="a_node12"><a xlink:href="src/events.js" xlink:title="events.js">
<polygon fill="#f6f6aa" stroke="transparent" stroke-width=".4" points="70,-245 16,-245 16,-230 70,-230 70,-245"/>
<text text-anchor="middle" x="43" y="-236.2" font-family="monospace" font-size="6.00" fill="#000000">events.js</text>
</a>
</g>
</g>
<!-- src/index.js -->
<g id="node13" class="node">
<title>src/index.js</title>
<g id="a_node13"><a xlink:href="src/index.js" xlink:title="index.js">
<polygon fill="#f6f6aa" stroke="transparent" stroke-width=".4" points="360,-296 306,-296 306,-281 360,-281 360,-296"/>
<text text-anchor="middle" x="333" y="-287.2" font-family="monospace" font-size="6.00" fill="#000000">index.js</text>
</a>
</g>
</g>
<!-- src/index.js&#45;&gt;src/events.js -->
<g id="edge7" class="edge">
<title>src/index.js&#45;&gt;src/events.js</title>
<path fill="none" stroke="#6677dd" stroke-width=".7" stroke-opacity="0.666667" d="M305.9779,-293C233.9854,-293 43,-293 43,-293 43,-293 43,-250.217 43,-250.217"/>
<polygon fill="#6677dd" fill-opacity="0.666667" stroke="#6677dd" stroke-width=".7" stroke-opacity="0.666667" points="44.7501,-250.217 43,-245.217 41.2501,-250.2171 44.7501,-250.217"/>
</g>
<!-- src/io/clock.js -->
<g id="node14" class="node">
<title>src/io/clock.js</title>
<g id="a_node14"><a xlink:href="src/io/clock.js" xlink:title="clock.js">
<polygon fill="#f6f6aa" stroke="transparent" stroke-width=".4" points="286,-245 232,-245 232,-230 286,-230 286,-245"/>
<text text-anchor="middle" x="259" y="-236.2" font-family="monospace" font-size="6.00" fill="#000000">clock.js</text>
</a>
</g>
</g>
<!-- src/index.js&#45;&gt;src/io/clock.js -->
<g id="edge8" class="edge">
<title>src/index.js&#45;&gt;src/io/clock.js</title>
<path fill="none" stroke="#6677dd" stroke-width=".7" stroke-opacity="0.666667" d="M305.8653,-284C284.7458,-284 259,-284 259,-284 259,-284 259,-250.1785 259,-250.1785"/>
<polygon fill="#6677dd" fill-opacity="0.666667" stroke="#6677dd" stroke-width=".7" stroke-opacity="0.666667" points="260.7501,-250.1785 259,-245.1785 257.2501,-250.1786 260.7501,-250.1785"/>
</g>
<!-- src/io/print.js -->
<g id="node15" class="node">
<title>src/io/print.js</title>
<g id="a_node15"><a xlink:href="src/io/print.js" xlink:title="print.js">
<polygon fill="#f6f6aa" stroke="transparent" stroke-width=".4" points="214,-245 160,-245 160,-230 214,-230 214,-245"/>
<text text-anchor="middle" x="187" y="-236.2" font-family="monospace" font-size="6.00" fill="#000000">print.js</text>
</a>
</g>
</g>
<!-- src/index.js&#45;&gt;src/io/print.js -->
<g id="edge9" class="edge">
<title>src/index.js&#45;&gt;src/io/print.js</title>
<path fill="none" stroke="#6677dd" stroke-width=".7" stroke-opacity="0.666667" d="M305.8807,-287C263.6586,-287 187,-287 187,-287 187,-287 187,-250.2344 187,-250.2344"/>
<polygon fill="#6677dd" fill-opacity="0.666667" stroke="#6677dd" stroke-width=".7" stroke-opacity="0.666667" points="188.7501,-250.2343 187,-245.2344 185.2501,-250.2344 188.7501,-250.2343"/>
</g>
<!-- src/io/resize.js -->
<g id="node16" class="node">
<title>src/io/resize.js</title>
<g id="a_node16"><a xlink:href="src/io/resize.js" xlink:title="resize.js">
<polygon fill="#f6f6aa" stroke="transparent" stroke-width=".4" points="142,-245 88,-245 88,-230 142,-230 142,-245"/>
<text text-anchor="middle" x="115" y="-236.2" font-family="monospace" font-size="6.00" fill="#000000">resize.js</text>
</a>
</g>
</g>
<!-- src/index.js&#45;&gt;src/io/resize.js -->
<g id="edge10" class="edge">
<title>src/index.js&#45;&gt;src/io/resize.js</title>
<path fill="none" stroke="#6677dd" stroke-width=".7" stroke-opacity="0.666667" d="M305.8309,-290C247.3922,-290 115,-290 115,-290 115,-290 115,-250.2466 115,-250.2466"/>
<polygon fill="#6677dd" fill-opacity="0.666667" stroke="#6677dd" stroke-width=".7" stroke-opacity="0.666667" points="116.7501,-250.2465 115,-245.2466 113.2501,-250.2466 116.7501,-250.2465"/>
</g>
<!-- src/logEvent.js -->
<g id="node17" class="node">
<title>src/logEvent.js</title>
<g id="a_node17"><a xlink:href="src/logEvent.js" xlink:title="logEvent.js">
<polygon fill="#f6f6aa" stroke="transparent" stroke-width=".4" points="362,-245 304,-245 304,-230 362,-230 362,-245"/>
<text text-anchor="middle" x="333" y="-236.2" font-family="monospace" font-size="6.00" fill="#000000">logEvent.js</text>
</a>
</g>
</g>
<!-- src/index.js&#45;&gt;src/logEvent.js -->
<g id="edge11" class="edge">
<title>src/index.js&#45;&gt;src/logEvent.js</title>
<path fill="none" stroke="#6677dd" stroke-width=".7" stroke-opacity="0.666667" d="M333,-280.9748C333,-280.9748 333,-250.0561 333,-250.0561"/>
<polygon fill="#6677dd" fill-opacity="0.666667" stroke="#6677dd" stroke-width=".7" stroke-opacity="0.666667" points="334.7501,-250.0561 333,-245.0561 331.2501,-250.0561 334.7501,-250.0561"/>
</g>
<!-- src/options.js -->
<g id="node18" class="node">
<title>src/options.js</title>
<g id="a_node18"><a xlink:href="src/options.js" xlink:title="options.js">
<polygon fill="#f6f6aa" stroke="transparent" stroke-width=".4" points="739,-31 685,-31 685,-16 739,-16 739,-31"/>
<text text-anchor="middle" x="712" y="-22.2" font-family="monospace" font-size="6.00" fill="#000000">options.js</text>
</a>
</g>
</g>
<!-- src/index.js&#45;&gt;src/options.js -->
<g id="edge12" class="edge">
<title>src/index.js&#45;&gt;src/options.js</title>
<path fill="none" stroke="#6677dd" stroke-width=".7" stroke-opacity="0.666667" d="M360.0021,-287C447.4087,-287 717,-287 717,-287 717,-287 717,-36.1019 717,-36.1019"/>
<polygon fill="#6677dd" fill-opacity="0.666667" stroke="#6677dd" stroke-width=".7" stroke-opacity="0.666667" points="718.7501,-36.1018 717,-31.1019 715.2501,-36.1019 718.7501,-36.1018"/>
</g>
<!-- src/render.js -->
<g id="node19" class="node">
<title>src/render.js</title>
<g id="a_node19"><a xlink:href="src/render.js" xlink:title="render.js">
<polygon fill="#f6f6aa" stroke="transparent" stroke-width=".4" points="852,-245 798,-245 798,-230 852,-230 852,-245"/>
<text text-anchor="middle" x="825" y="-236.2" font-family="monospace" font-size="6.00" fill="#000000">render.js</text>
</a>
</g>
</g>
<!-- src/index.js&#45;&gt;src/render.js -->
<g id="edge13" class="edge">
<title>src/index.js&#45;&gt;src/render.js</title>
<path fill="none" stroke="#6677dd" stroke-width=".7" stroke-opacity="0.666667" d="M360.1529,-290C463.2952,-290 825,-290 825,-290 825,-290 825,-250.2466 825,-250.2466"/>
<polygon fill="#6677dd" fill-opacity="0.666667" stroke="#6677dd" stroke-width=".7" stroke-opacity="0.666667" points="826.7501,-250.2465 825,-245.2466 823.2501,-250.2466 826.7501,-250.2465"/>
</g>
<!-- src/states/state.js -->
<g id="node20" class="node">
<title>src/states/state.js</title>
<g id="a_node20"><a xlink:href="src/states/state.js" xlink:title="state.js">
<polygon fill="#f6f6aa" stroke="transparent" stroke-width=".4" points="524,-245 470,-245 470,-230 524,-230 524,-245"/>
<text text-anchor="middle" x="497" y="-236.2" font-family="monospace" font-size="6.00" fill="#000000">state.js</text>
</a>
</g>
</g>
<!-- src/index.js&#45;&gt;src/states/state.js -->
<g id="edge14" class="edge">
<title>src/index.js&#45;&gt;src/states/state.js</title>
<path fill="none" stroke="#6677dd" stroke-width=".7" stroke-opacity="0.666667" d="M360.0813,-284C406.6619,-284 497,-284 497,-284 497,-284 497,-250.1785 497,-250.1785"/>
<polygon fill="#6677dd" fill-opacity="0.666667" stroke="#6677dd" stroke-width=".7" stroke-opacity="0.666667" points="498.7501,-250.1785 497,-245.1785 495.2501,-250.1786 498.7501,-250.1785"/>
</g>
<!-- tap&#45;parser -->
<g id="node21" class="node">
<title>tap&#45;parser</title>
<g id="a_node21"><a xlink:href="tap-parser" xlink:title="tap&#45;parser">
<polygon fill="#f6f6aa" stroke="transparent" stroke-width=".4" points="1222,-245 1168,-245 1168,-230 1222,-230 1222,-245"/>
<text text-anchor="middle" x="1195" y="-236.2" font-family="monospace" font-size="6.00" fill="#000000">tap&#45;parser</text>
</a>
</g>
</g>
<!-- src/index.js&#45;&gt;tap&#45;parser -->
<g id="edge15" class="edge">
<title>src/index.js&#45;&gt;tap&#45;parser</title>
<path fill="none" stroke="#6677dd" stroke-width=".7" stroke-opacity="0.666667" d="M360.2216,-293C506.7447,-293 1195,-293 1195,-293 1195,-293 1195,-250.217 1195,-250.217"/>
<polygon fill="#6677dd" fill-opacity="0.666667" stroke="#6677dd" stroke-width=".7" stroke-opacity="0.666667" points="1196.7501,-250.217 1195,-245.217 1193.2501,-250.2171 1196.7501,-250.217"/>
</g>
<!-- src/render.js&#45;&gt;src/components/Entries.js -->
<g id="edge22" class="edge">
<title>src/render.js&#45;&gt;src/components/Entries.js</title>
<path fill="none" stroke="#6677dd" stroke-width=".7" stroke-opacity="0.666667" d="M852.1455,-236C894.8718,-236 973,-236 973,-236 973,-236 973,-194.078 973,-194.078"/>
<polygon fill="#6677dd" fill-opacity="0.666667" stroke="#6677dd" stroke-width=".7" stroke-opacity="0.666667" points="974.7501,-194.078 973,-189.078 971.2501,-194.078 974.7501,-194.078"/>
</g>
<!-- src/render.js&#45;&gt;src/components/Entry.js -->
<g id="edge23" class="edge">
<title>src/render.js&#45;&gt;src/components/Entry.js</title>
<path fill="none" stroke="#6677dd" stroke-width=".7" stroke-opacity="0.666667" d="M825,-229.7134C825,-229.7134 825,-194.2204 825,-194.2204"/>
<polygon fill="#6677dd" fill-opacity="0.666667" stroke="#6677dd" stroke-width=".7" stroke-opacity="0.666667" points="826.7501,-194.2204 825,-189.2204 823.2501,-194.2205 826.7501,-194.2204"/>
</g>
<!-- src/render.js&#45;&gt;src/components/Failures.js -->
<g id="edge24" class="edge">
<title>src/render.js&#45;&gt;src/components/Failures.js</title>
<path fill="none" stroke="#6677dd" stroke-width=".7" stroke-opacity="0.666667" d="M852.1347,-233C873.2542,-233 899,-233 899,-233 899,-233 899,-194.099 899,-194.099"/>
<polygon fill="#6677dd" fill-opacity="0.666667" stroke="#6677dd" stroke-width=".7" stroke-opacity="0.666667" points="900.7501,-194.099 899,-189.099 897.2501,-194.099 900.7501,-194.099"/>
</g>
<!-- src/render.js&#45;&gt;src/components/Loading.js -->
<g id="edge25" class="edge">
<title>src/render.js&#45;&gt;src/components/Loading.js</title>
<path fill="none" stroke="#6677dd" stroke-width=".7" stroke-opacity="0.666667" d="M797.7799,-233C777.3907,-233 753,-233 753,-233 753,-233 753,-194.099 753,-194.099"/>
<polygon fill="#6677dd" fill-opacity="0.666667" stroke="#6677dd" stroke-width=".7" stroke-opacity="0.666667" points="754.7501,-194.099 753,-189.099 751.2501,-194.099 754.7501,-194.099"/>
</g>
<!-- src/render.js&#45;&gt;src/components/Log.js -->
<g id="edge26" class="edge">
<title>src/render.js&#45;&gt;src/components/Log.js</title>
<path fill="none" stroke="#6677dd" stroke-width=".7" stroke-opacity="0.666667" d="M797.6435,-242C739.5209,-242 609,-242 609,-242 609,-242 609,-194.1624 609,-194.1624"/>
<polygon fill="#6677dd" fill-opacity="0.666667" stroke="#6677dd" stroke-width=".7" stroke-opacity="0.666667" points="610.7501,-194.1623 609,-189.1624 607.2501,-194.1624 610.7501,-194.1623"/>
</g>
<!-- src/render.js&#45;&gt;src/components/Report.js -->
<g id="edge27" class="edge">
<title>src/render.js&#45;&gt;src/components/Report.js</title>
<path fill="none" stroke="#6677dd" stroke-width=".7" stroke-opacity="0.666667" d="M797.9147,-239C756.2014,-239 681,-239 681,-239 681,-239 681,-194.0171 681,-194.0171"/>
<polygon fill="#6677dd" fill-opacity="0.666667" stroke="#6677dd" stroke-width=".7" stroke-opacity="0.666667" points="682.7501,-194.0171 681,-189.0171 679.2501,-194.0172 682.7501,-194.0171"/>
</g>
<!-- src/render.js&#45;&gt;src/components/Summary.js -->
<g id="edge28" class="edge">
<title>src/render.js&#45;&gt;src/components/Summary.js</title>
<path fill="none" stroke="#6677dd" stroke-width=".7" stroke-opacity="0.666667" d="M852.2084,-242C924.6975,-242 1117,-242 1117,-242 1117,-242 1117,-194.1624 1117,-194.1624"/>
<polygon fill="#6677dd" fill-opacity="0.666667" stroke="#6677dd" stroke-width=".7" stroke-opacity="0.666667" points="1118.7501,-194.1623 1117,-189.1624 1115.2501,-194.1624 1118.7501,-194.1623"/>
</g>
<!-- src/render.js&#45;&gt;src/components/Title.js -->
<g id="edge29" class="edge">
<title>src/render.js&#45;&gt;src/components/Title.js</title>
<path fill="none" stroke="#6677dd" stroke-width=".7" stroke-opacity="0.666667" d="M852.4183,-239C911.3932,-239 1045,-239 1045,-239 1045,-239 1045,-194.0171 1045,-194.0171"/>
<polygon fill="#6677dd" fill-opacity="0.666667" stroke="#6677dd" stroke-width=".7" stroke-opacity="0.666667" points="1046.7501,-194.0171 1045,-189.0171 1043.2501,-194.0172 1046.7501,-194.0171"/>
</g>
<!-- src/results/resolvePath.js -->
<g id="node24" class="node">
<title>src/results/resolvePath.js</title>
<g id="a_node24"><a xlink:href="src/results/resolvePath.js" xlink:title="resolvePath.js">
<polygon fill="#f6f6aa" stroke="transparent" stroke-width=".4" points="517.5,-133 448.5,-133 448.5,-118 517.5,-118 517.5,-133"/>
<text text-anchor="middle" x="483" y="-124.2" font-family="monospace" font-size="6.00" fill="#000000">resolvePath.js</text>
</a>
</g>
</g>
<!-- src/states/state.js&#45;&gt;src/results/resolvePath.js -->
<g id="edge34" class="edge">
<title>src/states/state.js&#45;&gt;src/results/resolvePath.js</title>
<path fill="none" stroke="#6677dd" stroke-width=".7" stroke-opacity="0.666667" d="M469.7482,-240C466.3284,-240 464,-240 464,-240 464,-240 464,-138.0127 464,-138.0127"/>
<polygon fill="#6677dd" fill-opacity="0.666667" stroke="#6677dd" stroke-width=".7" stroke-opacity="0.666667" points="465.7501,-138.0126 464,-133.0127 462.2501,-138.0127 465.7501,-138.0126"/>
</g>
<!-- src/results/tree.js -->
<g id="node26" class="node">
<title>src/results/tree.js</title>
<g id="a_node26"><a xlink:href="src/results/tree.js" xlink:title="tree.js">
<polygon fill="#f6f6aa" stroke="transparent" stroke-width=".4" points="590,-133 536,-133 536,-118 590,-118 590,-133"/>
<text text-anchor="middle" x="563" y="-124.2" font-family="monospace" font-size="6.00" fill="#000000">tree.js</text>
</a>
</g>
</g>
<!-- src/states/state.js&#45;&gt;src/results/tree.js -->
<g id="edge35" class="edge">
<title>src/states/state.js&#45;&gt;src/results/tree.js</title>
<path fill="none" stroke="#6677dd" stroke-width=".7" stroke-opacity="0.666667" d="M524.1344,-236C543.6957,-236 566.6667,-236 566.6667,-236 566.6667,-236 566.6667,-138.0951 566.6667,-138.0951"/>
<polygon fill="#6677dd" fill-opacity="0.666667" stroke="#6677dd" stroke-width=".7" stroke-opacity="0.666667" points="568.4168,-138.0951 566.6667,-133.0951 564.9168,-138.0951 568.4168,-138.0951"/>
</g>
<!-- src/states/Failure.js -->
<g id="node27" class="node">
<title>src/states/Failure.js</title>
<g id="a_node27"><a xlink:href="src/states/Failure.js" xlink:title="Failure.js">
<polygon fill="#f6f6aa" stroke="transparent" stroke-width=".4" points="452,-189 398,-189 398,-174 452,-174 452,-189"/>
<text text-anchor="middle" x="425" y="-180.2" font-family="monospace" font-size="6.00" fill="#000000">Failure.js</text>
</a>
</g>
</g>
<!-- src/states/state.js&#45;&gt;src/states/Failure.js -->
<g id="edge36" class="edge">
<title>src/states/state.js&#45;&gt;src/states/Failure.js</title>
<path fill="none" stroke="#6677dd" stroke-width=".7" stroke-opacity="0.666667" d="M469.7799,-235C449.3907,-235 425,-235 425,-235 425,-235 425,-194.3941 425,-194.3941"/>
<polygon fill="#6677dd" fill-opacity="0.666667" stroke="#6677dd" stroke-width=".7" stroke-opacity="0.666667" points="426.7501,-194.3941 425,-189.3941 423.2501,-194.3941 426.7501,-194.3941"/>
</g>
<!-- src/states/Log.js -->
<g id="node28" class="node">
<title>src/states/Log.js</title>
<g id="a_node28"><a xlink:href="src/states/Log.js" xlink:title="Log.js">
<polygon fill="#f6f6aa" stroke="transparent" stroke-width=".4" points="524,-189 470,-189 470,-174 524,-174 524,-189"/>
<text text-anchor="middle" x="497" y="-180.2" font-family="monospace" font-size="6.00" fill="#000000">Log.js</text>
</a>
</g>
</g>
<!-- src/states/state.js&#45;&gt;src/states/Log.js -->
<g id="edge37" class="edge">
<title>src/states/state.js&#45;&gt;src/states/Log.js</title>
<path fill="none" stroke="#6677dd" stroke-width=".7" stroke-opacity="0.666667" d="M497,-229.7134C497,-229.7134 497,-194.2204 497,-194.2204"/>
<polygon fill="#6677dd" fill-opacity="0.666667" stroke="#6677dd" stroke-width=".7" stroke-opacity="0.666667" points="498.7501,-194.2204 497,-189.2204 495.2501,-194.2205 498.7501,-194.2204"/>
</g>
<!-- src/looks/theme.js&#45;&gt;chalk -->
<g id="edge20" class="edge">
<title>src/looks/theme.js&#45;&gt;chalk</title>
<path fill="none" stroke="#6677dd" stroke-width=".7" stroke-opacity="0.666667" d="M1036,-66.9871C1036,-59.4652 1036,-49 1036,-49 1036,-49 1258,-49 1258,-49 1258,-49 1258,-36.0129 1258,-36.0129"/>
<polygon fill="#6677dd" fill-opacity="0.666667" stroke="#6677dd" stroke-width=".7" stroke-opacity="0.666667" points="1259.7501,-36.0129 1258,-31.0129 1256.2501,-36.013 1259.7501,-36.0129"/>
</g>
<!-- src/looks/theme.js&#45;&gt;fs -->
<g id="edge21" class="edge">
<title>src/looks/theme.js&#45;&gt;fs</title>
<path fill="none" stroke="#6677dd" stroke-width=".7" stroke-opacity="0.666667" d="M1054,-66.901C1054,-52.5754 1054,-23 1054,-23 1054,-23 1162.8138,-23 1162.8138,-23"/>
<polygon fill="#6677dd" fill-opacity="0.666667" stroke="#6677dd" stroke-width=".7" stroke-opacity="0.666667" points="1162.8138,-24.7501 1167.8138,-23 1162.8137,-21.2501 1162.8138,-24.7501"/>
</g>
<!-- src/looks/theme.js&#45;&gt;src/options.js -->
<g id="edge19" class="edge">
<title>src/looks/theme.js&#45;&gt;src/options.js</title>
<path fill="none" stroke="#6677dd" stroke-width=".7" stroke-opacity="0.666667" d="M1017.8143,-74C941.785,-74 732.5,-74 732.5,-74 732.5,-74 732.5,-36.3906 732.5,-36.3906"/>
<polygon fill="#6677dd" fill-opacity="0.666667" stroke="#6677dd" stroke-width=".7" stroke-opacity="0.666667" points="734.2501,-36.3906 732.5,-31.3906 730.7501,-36.3907 734.2501,-36.3906"/>
</g>
<!-- src/results/status.js -->
<g id="node25" class="node">
<title>src/results/status.js</title>
<g id="a_node25"><a xlink:href="src/results/status.js" xlink:title="status.js">
<polygon fill="#f6f6aa" stroke="transparent" stroke-width=".4" points="590,-82 536,-82 536,-67 590,-67 590,-82"/>
<text text-anchor="middle" x="563" y="-73.2" font-family="monospace" font-size="6.00" fill="#000000">status.js</text>
</a>
</g>
</g>
<!-- src/results/tree.js&#45;&gt;src/results/status.js -->
<g id="edge30" class="edge">
<title>src/results/tree.js&#45;&gt;src/results/status.js</title>
<path fill="none" stroke="#6677dd" stroke-width=".7" stroke-opacity="0.666667" d="M563,-117.9748C563,-117.9748 563,-87.0561 563,-87.0561"/>
<polygon fill="#6677dd" fill-opacity="0.666667" stroke="#6677dd" stroke-width=".7" stroke-opacity="0.666667" points="564.7501,-87.0561 563,-82.0561 561.2501,-87.0561 564.7501,-87.0561"/>
</g>
<!-- src/states/Failure.js&#45;&gt;src/results/resolvePath.js -->
<g id="edge31" class="edge">
<title>src/states/Failure.js&#45;&gt;src/results/resolvePath.js</title>
<path fill="none" stroke="#6677dd" stroke-width=".7" stroke-opacity="0.666667" d="M452.2518,-181C455.6716,-181 458,-181 458,-181 458,-181 458,-138.217 458,-138.217"/>
<polygon fill="#6677dd" fill-opacity="0.666667" stroke="#6677dd" stroke-width=".7" stroke-opacity="0.666667" points="459.7501,-138.217 458,-133.217 456.2501,-138.2171 459.7501,-138.217"/>
</g>
<!-- src/states/Log.js&#45;&gt;src/results/resolvePath.js -->
<g id="edge32" class="edge">
<title>src/states/Log.js&#45;&gt;src/results/resolvePath.js</title>
<path fill="none" stroke="#6677dd" stroke-width=".7" stroke-opacity="0.666667" d="M493.75,-173.7134C493.75,-173.7134 493.75,-138.2204 493.75,-138.2204"/>
<polygon fill="#6677dd" fill-opacity="0.666667" stroke="#6677dd" stroke-width=".7" stroke-opacity="0.666667" points="495.5001,-138.2204 493.75,-133.2204 492.0001,-138.2205 495.5001,-138.2204"/>
</g>
<!-- src/states/Log.js&#45;&gt;src/results/tree.js -->
<g id="edge33" class="edge">
<title>src/states/Log.js&#45;&gt;src/results/tree.js</title>
<path fill="none" stroke="#6677dd" stroke-width=".7" stroke-opacity="0.666667" d="M524.1667,-181C537.75,-181 551.3333,-181 551.3333,-181 551.3333,-181 551.3333,-138.217 551.3333,-138.217"/>
<polygon fill="#6677dd" fill-opacity="0.666667" stroke="#6677dd" stroke-width=".7" stroke-opacity="0.666667" points="553.0834,-138.217 551.3333,-133.217 549.5834,-138.2171 553.0834,-138.217"/>
</g>
</g>
</svg>
