<?xml version="1.0" encoding="UTF-8" standalone="no"?>
<!DOCTYPE svg PUBLIC "-//W3C//DTD SVG 1.1//EN"
 "http://www.w3.org/Graphics/SVG/1.1/DTD/svg11.dtd">
<!-- Generated by graphviz version 2.40.1 (20161225.0304)
 -->
<!-- Title: dependency&#45;cruiser output Pages: 1 -->
<svg width="758pt" height="337pt"
 viewBox="0.00 0.00 758.00 337.00" xmlns="http://www.w3.org/2000/svg" xmlns:xlink="http://www.w3.org/1999/xlink">
<g id="graph0" class="graph" transform="scale(1 1) rotate(0) translate(4 333)">
<title>dependency&#45;cruiser output</title>
<polygon fill="#ffffff" stroke="transparent" points="-4,4 -4,-333 754,-333 754,4 -4,4"/>
<g id="clust1" class="cluster">
<title>cluster_src</title>
<polygon fill="#ffffff" stroke="#000000" stroke-width=".4" points="8,-8 8,-321 616,-321 616,-8 8,-8"/>
<text text-anchor="middle" x="312" y="-310.6" font-family="monospace" font-size="8.00" fill="#000000">src</text>
</g>
<g id="clust2" class="cluster">
<title>cluster_src/components</title>
<polygon fill="#ffffff" stroke="#000000" stroke-width=".4" points="28,-166 28,-214 530,-214 530,-166 28,-166"/>
<text text-anchor="middle" x="279" y="-203.6" font-family="monospace" font-size="8.00" fill="#000000">components</text>
</g>
<g id="clust3" class="cluster">
<title>cluster_src/io</title>
<polygon fill="#ffffff" stroke="#000000" stroke-width=".4" points="80,-222 80,-270 294,-270 294,-222 80,-222"/>
<text text-anchor="middle" x="187" y="-259.6" font-family="monospace" font-size="8.00" fill="#000000">io</text>
</g>
<g id="clust4" class="cluster">
<title>cluster_src/looks</title>
<polygon fill="#ffffff" stroke="#000000" stroke-width=".4" points="388,-59 388,-158 458,-158 458,-59 388,-59"/>
<text text-anchor="middle" x="423" y="-147.6" font-family="monospace" font-size="8.00" fill="#000000">looks</text>
</g>
<g id="clust5" class="cluster">
<title>cluster_src/results</title>
<polygon fill="#ffffff" stroke="#000000" stroke-width=".4" points="538,-110 538,-214 608,-214 608,-110 538,-110"/>
<text text-anchor="middle" x="573" y="-203.6" font-family="monospace" font-size="8.00" fill="#000000">results</text>
</g>
<!-- chalk -->
<g id="node1" class="node">
<title>chalk</title>
<g id="a_node1"><a xlink:href="chalk" xlink:title="chalk">
<polygon fill="#f6f6aa" stroke="transparent" stroke-width=".4" points="750,-31 696,-31 696,-16 750,-16 750,-31"/>
<text text-anchor="middle" x="723" y="-22.2" font-family="monospace" font-size="6.00" fill="#000000">chalk</text>
</a>
</g>
</g>
<!-- fs -->
<g id="node2" class="node">
<title>fs</title>
<polygon fill="#f6f6aa" stroke="transparent" stroke-width=".4" points="678,-31 624,-31 624,-16 678,-16 678,-31"/>
<text text-anchor="middle" x="651" y="-22.2" font-family="monospace" font-size="6.00" fill="#000000">fs</text>
</g>
<!-- src/components/Entries.js -->
<g id="node3" class="node">
<title>src/components/Entries.js</title>
<g id="a_node3"><a xlink:href="src/components/Entries.js" xlink:title="Entries.js">
<polygon fill="#f6f6aa" stroke="transparent" stroke-width=".4" points="522,-189 468,-189 468,-174 522,-174 522,-189"/>
<text text-anchor="middle" x="495" y="-180.2" font-family="monospace" font-size="6.00" fill="#000000">Entries.js</text>
</a>
</g>
</g>
<!-- src/looks/style.js -->
<g id="node4" class="node">
<title>src/looks/style.js</title>
<g id="a_node4"><a xlink:href="src/looks/style.js" xlink:title="style.js">
<polygon fill="#f6f6aa" stroke="transparent" stroke-width=".4" points="450,-133 396,-133 396,-118 450,-118 450,-133"/>
<text text-anchor="middle" x="423" y="-124.2" font-family="monospace" font-size="6.00" fill="#000000">style.js</text>
</a>
</g>
</g>
<!-- src/components/Entries.js&#45;&gt;src/looks/style.js -->
<g id="edge1" class="edge">
<title>src/components/Entries.js&#45;&gt;src/looks/style.js</title>
<path fill="none" stroke="#6677dd" stroke-width=".7" stroke-opacity="0.666667" d="M495,-173.6059C495,-158.724 495,-128 495,-128 495,-128 455.2201,-128 455.2201,-128"/>
<polygon fill="#6677dd" fill-opacity="0.666667" stroke="#6677dd" stroke-width=".7" stroke-opacity="0.666667" points="455.2201,-126.2501 450.2201,-128 455.2201,-129.7501 455.2201,-126.2501"/>
</g>
<!-- src/looks/style.js&#45;&gt;chalk -->
<g id="edge17" class="edge">
<title>src/looks/style.js&#45;&gt;chalk</title>
<path fill="none" stroke="#6677dd" stroke-width=".7" stroke-opacity="0.666667" d="M432,-117.9871C432,-110.4652 432,-100 432,-100 432,-100 732,-100 732,-100 732,-100 732,-36.1148 732,-36.1148"/>
<polygon fill="#6677dd" fill-opacity="0.666667" stroke="#6677dd" stroke-width=".7" stroke-opacity="0.666667" points="733.7501,-36.1148 732,-31.1148 730.2501,-36.1148 733.7501,-36.1148"/>
</g>
<!-- src/looks/theme.js -->
<g id="node21" class="node">
<title>src/looks/theme.js</title>
<g id="a_node21"><a xlink:href="src/looks/theme.js" xlink:title="theme.js">
<polygon fill="#f6f6aa" stroke="transparent" stroke-width=".4" points="450,-82 396,-82 396,-67 450,-67 450,-82"/>
<text text-anchor="middle" x="423" y="-73.2" font-family="monospace" font-size="6.00" fill="#000000">theme.js</text>
</a>
</g>
</g>
<!-- src/looks/style.js&#45;&gt;src/looks/theme.js -->
<g id="edge16" class="edge">
<title>src/looks/style.js&#45;&gt;src/looks/theme.js</title>
<path fill="none" stroke="#6677dd" stroke-width=".7" stroke-opacity="0.666667" d="M414,-117.9748C414,-117.9748 414,-87.0561 414,-87.0561"/>
<polygon fill="#6677dd" fill-opacity="0.666667" stroke="#6677dd" stroke-width=".7" stroke-opacity="0.666667" points="415.7501,-87.0561 414,-82.0561 412.2501,-87.0561 415.7501,-87.0561"/>
</g>
<!-- strip&#45;ansi -->
<g id="node22" class="node">
<title>strip&#45;ansi</title>
<g id="a_node22"><a xlink:href="strip-ansi" xlink:title="strip&#45;ansi">
<polygon fill="#f6f6aa" stroke="transparent" stroke-width=".4" points="678,-82 624,-82 624,-67 678,-67 678,-82"/>
<text text-anchor="middle" x="651" y="-73.2" font-family="monospace" font-size="6.00" fill="#000000">strip&#45;ansi</text>
</a>
</g>
</g>
<!-- src/looks/style.js&#45;&gt;strip&#45;ansi -->
<g id="edge18" class="edge">
<title>src/looks/style.js&#45;&gt;strip&#45;ansi</title>
<path fill="none" stroke="#6677dd" stroke-width=".7" stroke-opacity="0.666667" d="M450.2124,-123C456.3033,-123 461,-123 461,-123 461,-123 461,-74 461,-74 461,-74 618.7776,-74 618.7776,-74"/>
<polygon fill="#6677dd" fill-opacity="0.666667" stroke="#6677dd" stroke-width=".7" stroke-opacity="0.666667" points="618.7777,-75.7501 623.7776,-74 618.7776,-72.2501 618.7777,-75.7501"/>
</g>
<!-- src/components/Failure.js -->
<g id="node5" class="node">
<title>src/components/Failure.js</title>
<g id="a_node5"><a xlink:href="src/components/Failure.js" xlink:title="Failure.js">
<polygon fill="#f6f6aa" stroke="transparent" stroke-width=".4" points="450,-189 396,-189 396,-174 450,-174 450,-189"/>
<text text-anchor="middle" x="423" y="-180.2" font-family="monospace" font-size="6.00" fill="#000000">Failure.js</text>
</a>
</g>
</g>
<!-- src/components/Failure.js&#45;&gt;src/looks/style.js -->
<g id="edge2" class="edge">
<title>src/components/Failure.js&#45;&gt;src/looks/style.js</title>
<path fill="none" stroke="#6677dd" stroke-width=".7" stroke-opacity="0.666667" d="M423,-173.7134C423,-173.7134 423,-138.2204 423,-138.2204"/>
<polygon fill="#6677dd" fill-opacity="0.666667" stroke="#6677dd" stroke-width=".7" stroke-opacity="0.666667" points="424.7501,-138.2204 423,-133.2204 421.2501,-138.2205 424.7501,-138.2204"/>
</g>
<!-- src/components/Loading.js -->
<g id="node6" class="node">
<title>src/components/Loading.js</title>
<g id="a_node6"><a xlink:href="src/components/Loading.js" xlink:title="Loading.js">
<polygon fill="#f6f6aa" stroke="transparent" stroke-width=".4" points="378,-189 324,-189 324,-174 378,-174 378,-189"/>
<text text-anchor="middle" x="351" y="-180.2" font-family="monospace" font-size="6.00" fill="#000000">Loading.js</text>
</a>
</g>
</g>
<!-- src/components/Log.js -->
<g id="node7" class="node">
<title>src/components/Log.js</title>
<g id="a_node7"><a xlink:href="src/components/Log.js" xlink:title="Log.js">
<polygon fill="#f6f6aa" stroke="transparent" stroke-width=".4" points="306,-189 252,-189 252,-174 306,-174 306,-189"/>
<text text-anchor="middle" x="279" y="-180.2" font-family="monospace" font-size="6.00" fill="#000000">Log.js</text>
</a>
</g>
</g>
<!-- src/components/Log.js&#45;&gt;src/looks/style.js -->
<g id="edge3" class="edge">
<title>src/components/Log.js&#45;&gt;src/looks/style.js</title>
<path fill="none" stroke="#6677dd" stroke-width=".7" stroke-opacity="0.666667" d="M283,-173.901C283,-159.5754 283,-130 283,-130 283,-130 390.6742,-130 390.6742,-130"/>
<polygon fill="#6677dd" fill-opacity="0.666667" stroke="#6677dd" stroke-width=".7" stroke-opacity="0.666667" points="390.6743,-131.7501 395.6742,-130 390.6742,-128.2501 390.6743,-131.7501"/>
</g>
<!-- src/components/Report.js -->
<g id="node8" class="node">
<title>src/components/Report.js</title>
<g id="a_node8"><a xlink:href="src/components/Report.js" xlink:title="Report.js">
<polygon fill="#f6f6aa" stroke="transparent" stroke-width=".4" points="234,-189 180,-189 180,-174 234,-174 234,-189"/>
<text text-anchor="middle" x="207" y="-180.2" font-family="monospace" font-size="6.00" fill="#000000">Report.js</text>
</a>
</g>
</g>
<!-- src/components/Report.js&#45;&gt;src/looks/style.js -->
<g id="edge4" class="edge">
<title>src/components/Report.js&#45;&gt;src/looks/style.js</title>
<path fill="none" stroke="#6677dd" stroke-width=".7" stroke-opacity="0.666667" d="M220,-173.922C220,-158.9469 220,-127 220,-127 220,-127 390.6225,-127 390.6225,-127"/>
<polygon fill="#6677dd" fill-opacity="0.666667" stroke="#6677dd" stroke-width=".7" stroke-opacity="0.666667" points="390.6226,-128.7501 395.6225,-127 390.6225,-125.2501 390.6226,-128.7501"/>
</g>
<!-- src/components/Summary.js -->
<g id="node9" class="node">
<title>src/components/Summary.js</title>
<g id="a_node9"><a xlink:href="src/components/Summary.js" xlink:title="Summary.js">
<polygon fill="#f6f6aa" stroke="transparent" stroke-width=".4" points="162,-189 108,-189 108,-174 162,-174 162,-189"/>
<text text-anchor="middle" x="135" y="-180.2" font-family="monospace" font-size="6.00" fill="#000000">Summary.js</text>
</a>
</g>
</g>
<!-- src/components/Summary.js&#45;&gt;src/looks/style.js -->
<g id="edge5" class="edge">
<title>src/components/Summary.js&#45;&gt;src/looks/style.js</title>
<path fill="none" stroke="#6677dd" stroke-width=".7" stroke-opacity="0.666667" d="M135,-173.9829C135,-158.3968 135,-124 135,-124 135,-124 390.9057,-124 390.9057,-124"/>
<polygon fill="#6677dd" fill-opacity="0.666667" stroke="#6677dd" stroke-width=".7" stroke-opacity="0.666667" points="390.9057,-125.7501 395.9057,-124 390.9056,-122.2501 390.9057,-125.7501"/>
</g>
<!-- src/components/Title.js -->
<g id="node10" class="node">
<title>src/components/Title.js</title>
<g id="a_node10"><a xlink:href="src/components/Title.js" xlink:title="Title.js">
<polygon fill="#f6f6aa" stroke="transparent" stroke-width=".4" points="90,-189 36,-189 36,-174 90,-174 90,-189"/>
<text text-anchor="middle" x="63" y="-180.2" font-family="monospace" font-size="6.00" fill="#000000">Title.js</text>
</a>
</g>
</g>
<!-- src/components/Title.js&#45;&gt;src/looks/style.js -->
<g id="edge6" class="edge">
<title>src/components/Title.js&#45;&gt;src/looks/style.js</title>
<path fill="none" stroke="#6677dd" stroke-width=".7" stroke-opacity="0.666667" d="M63,-173.8376C63,-157.5579 63,-121 63,-121 63,-121 390.9415,-121 390.9415,-121"/>
<polygon fill="#6677dd" fill-opacity="0.666667" stroke="#6677dd" stroke-width=".7" stroke-opacity="0.666667" points="390.9415,-122.7501 395.9415,-121 390.9415,-119.2501 390.9415,-122.7501"/>
</g>
<!-- src/events.js -->
<g id="node11" class="node">
<title>src/events.js</title>
<g id="a_node11"><a xlink:href="src/events.js" xlink:title="events.js">
<polygon fill="#f6f6aa" stroke="transparent" stroke-width=".4" points="70,-245 16,-245 16,-230 70,-230 70,-245"/>
<text text-anchor="middle" x="43" y="-236.2" font-family="monospace" font-size="6.00" fill="#000000">events.js</text>
</a>
</g>
</g>
<!-- src/index.js -->
<g id="node12" class="node">
<title>src/index.js</title>
<g id="a_node12"><a xlink:href="src/index.js" xlink:title="index.js">
<polygon fill="#f6f6aa" stroke="transparent" stroke-width=".4" points="360,-296 306,-296 306,-281 360,-281 360,-296"/>
<text text-anchor="middle" x="333" y="-287.2" font-family="monospace" font-size="6.00" fill="#000000">index.js</text>
</a>
</g>
</g>
<!-- src/index.js&#45;&gt;src/events.js -->
<g id="edge7" class="edge">
<title>src/index.js&#45;&gt;src/events.js</title>
<path fill="none" stroke="#6677dd" stroke-width=".7" stroke-opacity="0.666667" d="M305.9779,-293C233.9854,-293 43,-293 43,-293 43,-293 43,-250.217 43,-250.217"/>
<polygon fill="#6677dd" fill-opacity="0.666667" stroke="#6677dd" stroke-width=".7" stroke-opacity="0.666667" points="44.7501,-250.217 43,-245.217 41.2501,-250.2171 44.7501,-250.217"/>
</g>
<!-- src/io/clock.js -->
<g id="node13" class="node">
<title>src/io/clock.js</title>
<g id="a_node13"><a xlink:href="src/io/clock.js" xlink:title="clock.js">
<polygon fill="#f6f6aa" stroke="transparent" stroke-width=".4" points="286,-245 232,-245 232,-230 286,-230 286,-245"/>
<text text-anchor="middle" x="259" y="-236.2" font-family="monospace" font-size="6.00" fill="#000000">clock.js</text>
</a>
</g>
</g>
<!-- src/index.js&#45;&gt;src/io/clock.js -->
<g id="edge8" class="edge">
<title>src/index.js&#45;&gt;src/io/clock.js</title>
<path fill="none" stroke="#6677dd" stroke-width=".7" stroke-opacity="0.666667" d="M305.8653,-284C284.7458,-284 259,-284 259,-284 259,-284 259,-250.1785 259,-250.1785"/>
<polygon fill="#6677dd" fill-opacity="0.666667" stroke="#6677dd" stroke-width=".7" stroke-opacity="0.666667" points="260.7501,-250.1785 259,-245.1785 257.2501,-250.1786 260.7501,-250.1785"/>
</g>
<!-- src/io/print.js -->
<g id="node14" class="node">
<title>src/io/print.js</title>
<g id="a_node14"><a xlink:href="src/io/print.js" xlink:title="print.js">
<polygon fill="#f6f6aa" stroke="transparent" stroke-width=".4" points="214,-245 160,-245 160,-230 214,-230 214,-245"/>
<text text-anchor="middle" x="187" y="-236.2" font-family="monospace" font-size="6.00" fill="#000000">print.js</text>
</a>
</g>
</g>
<!-- src/index.js&#45;&gt;src/io/print.js -->
<g id="edge9" class="edge">
<title>src/index.js&#45;&gt;src/io/print.js</title>
<path fill="none" stroke="#6677dd" stroke-width=".7" stroke-opacity="0.666667" d="M305.8807,-287C263.6586,-287 187,-287 187,-287 187,-287 187,-250.2344 187,-250.2344"/>
<polygon fill="#6677dd" fill-opacity="0.666667" stroke="#6677dd" stroke-width=".7" stroke-opacity="0.666667" points="188.7501,-250.2343 187,-245.2344 185.2501,-250.2344 188.7501,-250.2343"/>
</g>
<!-- src/io/resize.js -->
<g id="node15" class="node">
<title>src/io/resize.js</title>
<g id="a_node15"><a xlink:href="src/io/resize.js" xlink:title="resize.js">
<polygon fill="#f6f6aa" stroke="transparent" stroke-width=".4" points="142,-245 88,-245 88,-230 142,-230 142,-245"/>
<text text-anchor="middle" x="115" y="-236.2" font-family="monospace" font-size="6.00" fill="#000000">resize.js</text>
</a>
</g>
</g>
<!-- src/index.js&#45;&gt;src/io/resize.js -->
<g id="edge10" class="edge">
<title>src/index.js&#45;&gt;src/io/resize.js</title>
<path fill="none" stroke="#6677dd" stroke-width=".7" stroke-opacity="0.666667" d="M305.8309,-290C247.3922,-290 115,-290 115,-290 115,-290 115,-250.2466 115,-250.2466"/>
<polygon fill="#6677dd" fill-opacity="0.666667" stroke="#6677dd" stroke-width=".7" stroke-opacity="0.666667" points="116.7501,-250.2465 115,-245.2466 113.2501,-250.2466 116.7501,-250.2465"/>
</g>
<!-- src/logEvent.js -->
<g id="node16" class="node">
<title>src/logEvent.js</title>
<g id="a_node16"><a xlink:href="src/logEvent.js" xlink:title="logEvent.js">
<polygon fill="#f6f6aa" stroke="transparent" stroke-width=".4" points="362,-245 304,-245 304,-230 362,-230 362,-245"/>
<text text-anchor="middle" x="333" y="-236.2" font-family="monospace" font-size="6.00" fill="#000000">logEvent.js</text>
</a>
</g>
</g>
<!-- src/index.js&#45;&gt;src/logEvent.js -->
<g id="edge11" class="edge">
<title>src/index.js&#45;&gt;src/logEvent.js</title>
<path fill="none" stroke="#6677dd" stroke-width=".7" stroke-opacity="0.666667" d="M333,-280.9748C333,-280.9748 333,-250.0561 333,-250.0561"/>
<polygon fill="#6677dd" fill-opacity="0.666667" stroke="#6677dd" stroke-width=".7" stroke-opacity="0.666667" points="334.7501,-250.0561 333,-245.0561 331.2501,-250.0561 334.7501,-250.0561"/>
</g>
<!-- src/options.js -->
<g id="node17" class="node">
<title>src/options.js</title>
<g id="a_node17"><a xlink:href="src/options.js" xlink:title="options.js">
<polygon fill="#f6f6aa" stroke="transparent" stroke-width=".4" points="260,-31 206,-31 206,-16 260,-16 260,-31"/>
<text text-anchor="middle" x="233" y="-22.2" font-family="monospace" font-size="6.00" fill="#000000">options.js</text>
</a>
</g>
</g>
<!-- src/index.js&#45;&gt;src/options.js -->
<g id="edge12" class="edge">
<title>src/index.js&#45;&gt;src/options.js</title>
<path fill="none" stroke="#6677dd" stroke-width=".7" stroke-opacity="0.666667" d="M360.3164,-284C373.7101,-284 387,-284 387,-284 387,-284 387,-26 387,-26 387,-26 265.1776,-26 265.1776,-26"/>
<polygon fill="#6677dd" fill-opacity="0.666667" stroke="#6677dd" stroke-width=".7" stroke-opacity="0.666667" points="265.1776,-24.2501 260.1776,-26 265.1776,-27.7501 265.1776,-24.2501"/>
</g>
<!-- src/render.js -->
<g id="node18" class="node">
<title>src/render.js</title>
<g id="a_node18"><a xlink:href="src/render.js" xlink:title="render.js">
<polygon fill="#f6f6aa" stroke="transparent" stroke-width=".4" points="454,-245 400,-245 400,-230 454,-230 454,-245"/>
<text text-anchor="middle" x="427" y="-236.2" font-family="monospace" font-size="6.00" fill="#000000">render.js</text>
</a>
</g>
</g>
<!-- src/index.js&#45;&gt;src/render.js -->
<g id="edge13" class="edge">
<title>src/index.js&#45;&gt;src/render.js</title>
<path fill="none" stroke="#6677dd" stroke-width=".7" stroke-opacity="0.666667" d="M360.1887,-287C387.9505,-287 427,-287 427,-287 427,-287 427,-250.2344 427,-250.2344"/>
<polygon fill="#6677dd" fill-opacity="0.666667" stroke="#6677dd" stroke-width=".7" stroke-opacity="0.666667" points="428.7501,-250.2343 427,-245.2344 425.2501,-250.2344 428.7501,-250.2343"/>
</g>
<!-- src/state.js -->
<g id="node19" class="node">
<title>src/state.js</title>
<g id="a_node19"><a xlink:href="src/state.js" xlink:title="state.js">
<polygon fill="#f6f6aa" stroke="transparent" stroke-width=".4" points="563,-245 509,-245 509,-230 563,-230 563,-245"/>
<text text-anchor="middle" x="536" y="-236.2" font-family="monospace" font-size="6.00" fill="#000000">state.js</text>
</a>
</g>
</g>
<!-- src/index.js&#45;&gt;src/state.js -->
<g id="edge14" class="edge">
<title>src/index.js&#45;&gt;src/state.js</title>
<path fill="none" stroke="#6677dd" stroke-width=".7" stroke-opacity="0.666667" d="M360.3775,-290C415.7878,-290 536,-290 536,-290 536,-290 536,-250.2466 536,-250.2466"/>
<polygon fill="#6677dd" fill-opacity="0.666667" stroke="#6677dd" stroke-width=".7" stroke-opacity="0.666667" points="537.7501,-250.2465 536,-245.2466 534.2501,-250.2466 537.7501,-250.2465"/>
</g>
<!-- tap&#45;parser -->
<g id="node20" class="node">
<title>tap&#45;parser</title>
<g id="a_node20"><a xlink:href="tap-parser" xlink:title="tap&#45;parser">
<polygon fill="#f6f6aa" stroke="transparent" stroke-width=".4" points="678,-245 624,-245 624,-230 678,-230 678,-245"/>
<text text-anchor="middle" x="651" y="-236.2" font-family="monospace" font-size="6.00" fill="#000000">tap&#45;parser</text>
</a>
</g>
</g>
<!-- src/index.js&#45;&gt;tap&#45;parser -->
<g id="edge15" class="edge">
<title>src/index.js&#45;&gt;tap&#45;parser</title>
<path fill="none" stroke="#6677dd" stroke-width=".7" stroke-opacity="0.666667" d="M360.1125,-293C437.0138,-293 651,-293 651,-293 651,-293 651,-250.217 651,-250.217"/>
<polygon fill="#6677dd" fill-opacity="0.666667" stroke="#6677dd" stroke-width=".7" stroke-opacity="0.666667" points="652.7501,-250.217 651,-245.217 649.2501,-250.2171 652.7501,-250.217"/>
</g>
<!-- src/render.js&#45;&gt;src/components/Entries.js -->
<g id="edge22" class="edge">
<title>src/render.js&#45;&gt;src/components/Entries.js</title>
<path fill="none" stroke="#6677dd" stroke-width=".7" stroke-opacity="0.666667" d="M454.1538,-237C470.6288,-237 488.5,-237 488.5,-237 488.5,-237 488.5,-194.217 488.5,-194.217"/>
<polygon fill="#6677dd" fill-opacity="0.666667" stroke="#6677dd" stroke-width=".7" stroke-opacity="0.666667" points="490.2501,-194.217 488.5,-189.217 486.7501,-194.2171 490.2501,-194.217"/>
</g>
<!-- src/render.js&#45;&gt;src/components/Failure.js -->
<g id="edge23" class="edge">
<title>src/render.js&#45;&gt;src/components/Failure.js</title>
<path fill="none" stroke="#6677dd" stroke-width=".7" stroke-opacity="0.666667" d="M441.6667,-229.7134C441.6667,-229.7134 441.6667,-194.2204 441.6667,-194.2204"/>
<polygon fill="#6677dd" fill-opacity="0.666667" stroke="#6677dd" stroke-width=".7" stroke-opacity="0.666667" points="443.4168,-194.2204 441.6667,-189.2204 439.9168,-194.2205 443.4168,-194.2204"/>
</g>
<!-- src/render.js&#45;&gt;src/components/Loading.js -->
<g id="edge24" class="edge">
<title>src/render.js&#45;&gt;src/components/Loading.js</title>
<path fill="none" stroke="#6677dd" stroke-width=".7" stroke-opacity="0.666667" d="M399.8355,-237C385.1545,-237 370,-237 370,-237 370,-237 370,-194.217 370,-194.217"/>
<polygon fill="#6677dd" fill-opacity="0.666667" stroke="#6677dd" stroke-width=".7" stroke-opacity="0.666667" points="371.7501,-194.217 370,-189.217 368.2501,-194.2171 371.7501,-194.217"/>
</g>
<!-- src/render.js&#45;&gt;src/components/Log.js -->
<g id="edge25" class="edge">
<title>src/render.js&#45;&gt;src/components/Log.js</title>
<path fill="none" stroke="#6677dd" stroke-width=".7" stroke-opacity="0.666667" d="M433.3333,-229.6912C433.3333,-217.9224 433.3333,-197 433.3333,-197 433.3333,-197 295,-197 295,-197 295,-197 295,-194.25 295,-194.25"/>
<polygon fill="#6677dd" fill-opacity="0.666667" stroke="#6677dd" stroke-width=".7" stroke-opacity="0.666667" points="296.7501,-194.25 295,-189.25 293.2501,-194.25 296.7501,-194.25"/>
</g>
<!-- src/render.js&#45;&gt;src/components/Report.js -->
<g id="edge26" class="edge">
<title>src/render.js&#45;&gt;src/components/Report.js</title>
<path fill="none" stroke="#6677dd" stroke-width=".7" stroke-opacity="0.666667" d="M425,-229.9622C425,-220.3613 425,-205 425,-205 425,-205 223,-205 223,-205 223,-205 223,-194.1948 223,-194.1948"/>
<polygon fill="#6677dd" fill-opacity="0.666667" stroke="#6677dd" stroke-width=".7" stroke-opacity="0.666667" points="224.7501,-194.1947 223,-189.1948 221.2501,-194.1948 224.7501,-194.1947"/>
</g>
<!-- src/render.js&#45;&gt;src/components/Summary.js -->
<g id="edge27" class="edge">
<title>src/render.js&#45;&gt;src/components/Summary.js</title>
<path fill="none" stroke="#6677dd" stroke-width=".7" stroke-opacity="0.666667" d="M416.6667,-229.748C416.6667,-222.5703 416.6667,-213 416.6667,-213 416.6667,-213 151,-213 151,-213 151,-213 151,-194.1253 151,-194.1253"/>
<polygon fill="#6677dd" fill-opacity="0.666667" stroke="#6677dd" stroke-width=".7" stroke-opacity="0.666667" points="152.7501,-194.1252 151,-189.1253 149.2501,-194.1253 152.7501,-194.1252"/>
</g>
<!-- src/render.js&#45;&gt;src/components/Title.js -->
<g id="edge28" class="edge">
<title>src/render.js&#45;&gt;src/components/Title.js</title>
<path fill="none" stroke="#6677dd" stroke-width=".7" stroke-opacity="0.666667" d="M408.3333,-229.6366C408.3333,-225.3868 408.3333,-221 408.3333,-221 408.3333,-221 79,-221 79,-221 79,-221 79,-194.116 79,-194.116"/>
<polygon fill="#6677dd" fill-opacity="0.666667" stroke="#6677dd" stroke-width=".7" stroke-opacity="0.666667" points="80.7501,-194.116 79,-189.116 77.2501,-194.116 80.7501,-194.116"/>
</g>
<!-- src/results/tree.js -->
<g id="node24" class="node">
<title>src/results/tree.js</title>
<g id="a_node24"><a xlink:href="src/results/tree.js" xlink:title="tree.js">
<polygon fill="#f6f6aa" stroke="transparent" stroke-width=".4" points="600,-189 546,-189 546,-174 600,-174 600,-189"/>
<text text-anchor="middle" x="573" y="-180.2" font-family="monospace" font-size="6.00" fill="#000000">tree.js</text>
</a>
</g>
</g>
<!-- src/state.js&#45;&gt;src/results/tree.js -->
<g id="edge30" class="edge">
<title>src/state.js&#45;&gt;src/results/tree.js</title>
<path fill="none" stroke="#6677dd" stroke-width=".7" stroke-opacity="0.666667" d="M554.5,-229.7134C554.5,-229.7134 554.5,-194.2204 554.5,-194.2204"/>
<polygon fill="#6677dd" fill-opacity="0.666667" stroke="#6677dd" stroke-width=".7" stroke-opacity="0.666667" points="556.2501,-194.2204 554.5,-189.2204 552.7501,-194.2205 556.2501,-194.2204"/>
</g>
<!-- src/looks/theme.js&#45;&gt;chalk -->
<g id="edge20" class="edge">
<title>src/looks/theme.js&#45;&gt;chalk</title>
<path fill="none" stroke="#6677dd" stroke-width=".7" stroke-opacity="0.666667" d="M414,-66.9871C414,-59.4652 414,-49 414,-49 414,-49 714,-49 714,-49 714,-49 714,-36.0129 714,-36.0129"/>
<polygon fill="#6677dd" fill-opacity="0.666667" stroke="#6677dd" stroke-width=".7" stroke-opacity="0.666667" points="715.7501,-36.0129 714,-31.0129 712.2501,-36.013 715.7501,-36.0129"/>
</g>
<!-- src/looks/theme.js&#45;&gt;fs -->
<g id="edge21" class="edge">
<title>src/looks/theme.js&#45;&gt;fs</title>
<path fill="none" stroke="#6677dd" stroke-width=".7" stroke-opacity="0.666667" d="M432,-66.6059C432,-51.724 432,-21 432,-21 432,-21 618.7063,-21 618.7063,-21"/>
<polygon fill="#6677dd" fill-opacity="0.666667" stroke="#6677dd" stroke-width=".7" stroke-opacity="0.666667" points="618.7063,-22.7501 623.7063,-21 618.7063,-19.2501 618.7063,-22.7501"/>
</g>
<!-- src/looks/theme.js&#45;&gt;src/options.js -->
<g id="edge19" class="edge">
<title>src/looks/theme.js&#45;&gt;src/options.js</title>
<path fill="none" stroke="#6677dd" stroke-width=".7" stroke-opacity="0.666667" d="M395.7969,-74C348.4755,-74 256,-74 256,-74 256,-74 256,-36.3906 256,-36.3906"/>
<polygon fill="#6677dd" fill-opacity="0.666667" stroke="#6677dd" stroke-width=".7" stroke-opacity="0.666667" points="257.7501,-36.3906 256,-31.3906 254.2501,-36.3907 257.7501,-36.3906"/>
</g>
<!-- src/results/status.js -->
<g id="node23" class="node">
<title>src/results/status.js</title>
<g id="a_node23"><a xlink:href="src/results/status.js" xlink:title="status.js">
<polygon fill="#f6f6aa" stroke="transparent" stroke-width=".4" points="600,-133 546,-133 546,-118 600,-118 600,-133"/>
<text text-anchor="middle" x="573" y="-124.2" font-family="monospace" font-size="6.00" fill="#000000">status.js</text>
</a>
</g>
</g>
<!-- src/results/tree.js&#45;&gt;src/results/status.js -->
<g id="edge29" class="edge">
<title>src/results/tree.js&#45;&gt;src/results/status.js</title>
<path fill="none" stroke="#6677dd" stroke-width=".7" stroke-opacity="0.666667" d="M573,-173.7134C573,-173.7134 573,-138.2204 573,-138.2204"/>
<polygon fill="#6677dd" fill-opacity="0.666667" stroke="#6677dd" stroke-width=".7" stroke-opacity="0.666667" points="574.7501,-138.2204 573,-133.2204 571.2501,-138.2205 574.7501,-138.2204"/>
</g>
</g>
</svg>
