<?xml version="1.0" encoding="UTF-8" standalone="no"?>
<!DOCTYPE svg PUBLIC "-//W3C//DTD SVG 1.1//EN"
 "http://www.w3.org/Graphics/SVG/1.1/DTD/svg11.dtd">
<!-- Generated by graphviz version 2.40.1 (20161225.0304)
 -->
<!-- Title: dependency&#45;cruiser output Pages: 1 -->
<svg width="1282pt" height="337pt"
 viewBox="0.00 0.00 1282.00 337.00" xmlns="http://www.w3.org/2000/svg" xmlns:xlink="http://www.w3.org/1999/xlink">
<g id="graph0" class="graph" transform="scale(1 1) rotate(0) translate(4 333)">
<title>dependency&#45;cruiser output</title>
<polygon fill="#ffffff" stroke="transparent" points="-4,4 -4,-333 1278,-333 1278,4 -4,4"/>
<g id="clust1" class="cluster">
<title>cluster_src</title>
<polygon fill="#ffffff" stroke="#000000" stroke-width=".4" points="8,-8 8,-321 1140,-321 1140,-8 8,-8"/>
<text text-anchor="middle" x="574" y="-310.6" font-family="monospace" font-size="8.00" fill="#000000">src</text>
</g>
<g id="clust2" class="cluster">
<title>cluster_src/components</title>
<polygon fill="#ffffff" stroke="#000000" stroke-width=".4" points="554,-166 554,-214 1132,-214 1132,-166 554,-166"/>
<text text-anchor="middle" x="843" y="-203.6" font-family="monospace" font-size="8.00" fill="#000000">components</text>
</g>
<g id="clust3" class="cluster">
<title>cluster_src/io</title>
<polygon fill="#ffffff" stroke="#000000" stroke-width=".4" points="80,-222 80,-270 294,-270 294,-222 80,-222"/>
<text text-anchor="middle" x="187" y="-259.6" font-family="monospace" font-size="8.00" fill="#000000">io</text>
</g>
<g id="clust4" class="cluster">
<title>cluster_src/looks</title>
<polygon fill="#ffffff" stroke="#000000" stroke-width=".4" points="946,-59 946,-158 1016,-158 1016,-59 946,-59"/>
<text text-anchor="middle" x="981" y="-147.6" font-family="monospace" font-size="8.00" fill="#000000">looks</text>
</g>
<g id="clust5" class="cluster">
<title>cluster_src/results</title>
<polygon fill="#ffffff" stroke="#000000" stroke-width=".4" points="374,-59 374,-158 532,-158 532,-59 374,-59"/>
<text text-anchor="middle" x="453" y="-147.6" font-family="monospace" font-size="8.00" fill="#000000">results</text>
</g>
<g id="clust6" class="cluster">
<title>cluster_src/states</title>
<polygon fill="#ffffff" stroke="#000000" stroke-width=".4" points="390,-166 390,-270 532,-270 532,-166 390,-166"/>
<text text-anchor="middle" x="461" y="-259.6" font-family="monospace" font-size="8.00" fill="#000000">states</text>
</g>
<!-- chalk -->
<g id="node1" class="node">
<title>chalk</title>
<g id="a_node1"><a xlink:href="chalk" xlink:title="chalk">
<polygon fill="#f6f6aa" stroke="transparent" stroke-width=".4" points="1274,-31 1220,-31 1220,-16 1274,-16 1274,-31"/>
<text text-anchor="middle" x="1247" y="-22.2" font-family="monospace" font-size="6.00" fill="#000000">chalk</text>
</a>
</g>
</g>
<!-- fs -->
<g id="node2" class="node">
<title>fs</title>
<polygon fill="#f6f6aa" stroke="transparent" stroke-width=".4" points="1202,-31 1148,-31 1148,-16 1202,-16 1202,-31"/>
<text text-anchor="middle" x="1175" y="-22.2" font-family="monospace" font-size="6.00" fill="#000000">fs</text>
</g>
<!-- src/components/Entries.js -->
<g id="node3" class="node">
<title>src/components/Entries.js</title>
<g id="a_node3"><a xlink:href="src/components/Entries.js" xlink:title="Entries.js">
<polygon fill="#f6f6aa" stroke="transparent" stroke-width=".4" points="836,-189 782,-189 782,-174 836,-174 836,-189"/>
<text text-anchor="middle" x="809" y="-180.2" font-family="monospace" font-size="6.00" fill="#000000">Entries.js</text>
</a>
</g>
</g>
<!-- src/components/Entry.js -->
<g id="node4" class="node">
<title>src/components/Entry.js</title>
<g id="a_node4"><a xlink:href="src/components/Entry.js" xlink:title="Entry.js">
<polygon fill="#f6f6aa" stroke="transparent" stroke-width=".4" points="764,-189 710,-189 710,-174 764,-174 764,-189"/>
<text text-anchor="middle" x="737" y="-180.2" font-family="monospace" font-size="6.00" fill="#000000">Entry.js</text>
</a>
</g>
</g>
<!-- src/looks/style.js -->
<g id="node5" class="node">
<title>src/looks/style.js</title>
<g id="a_node5"><a xlink:href="src/looks/style.js" xlink:title="style.js">
<polygon fill="#f6f6aa" stroke="transparent" stroke-width=".4" points="1008,-133 954,-133 954,-118 1008,-118 1008,-133"/>
<text text-anchor="middle" x="981" y="-124.2" font-family="monospace" font-size="6.00" fill="#000000">style.js</text>
</a>
</g>
</g>
<!-- src/components/Entry.js&#45;&gt;src/looks/style.js -->
<g id="edge1" class="edge">
<title>src/components/Entry.js&#45;&gt;src/looks/style.js</title>
<path fill="none" stroke="#6677dd" stroke-width=".7" stroke-opacity="0.666667" d="M737,-173.9829C737,-158.3968 737,-124 737,-124 737,-124 948.9555,-124 948.9555,-124"/>
<polygon fill="#6677dd" fill-opacity="0.666667" stroke="#6677dd" stroke-width=".7" stroke-opacity="0.666667" points="948.9555,-125.7501 953.9555,-124 948.9554,-122.2501 948.9555,-125.7501"/>
</g>
<!-- src/looks/style.js&#45;&gt;chalk -->
<g id="edge17" class="edge">
<title>src/looks/style.js&#45;&gt;chalk</title>
<path fill="none" stroke="#6677dd" stroke-width=".7" stroke-opacity="0.666667" d="M1008.1207,-125C1077.499,-125 1256,-125 1256,-125 1256,-125 1256,-36.129 1256,-36.129"/>
<polygon fill="#6677dd" fill-opacity="0.666667" stroke="#6677dd" stroke-width=".7" stroke-opacity="0.666667" points="1257.7501,-36.129 1256,-31.129 1254.2501,-36.129 1257.7501,-36.129"/>
</g>
<!-- src/looks/theme.js -->
<g id="node22" class="node">
<title>src/looks/theme.js</title>
<g id="a_node22"><a xlink:href="src/looks/theme.js" xlink:title="theme.js">
<polygon fill="#f6f6aa" stroke="transparent" stroke-width=".4" points="1008,-82 954,-82 954,-67 1008,-67 1008,-82"/>
<text text-anchor="middle" x="981" y="-73.2" font-family="monospace" font-size="6.00" fill="#000000">theme.js</text>
</a>
</g>
</g>
<!-- src/looks/style.js&#45;&gt;src/looks/theme.js -->
<g id="edge16" class="edge">
<title>src/looks/style.js&#45;&gt;src/looks/theme.js</title>
<path fill="none" stroke="#6677dd" stroke-width=".7" stroke-opacity="0.666667" d="M981,-117.9748C981,-117.9748 981,-87.0561 981,-87.0561"/>
<polygon fill="#6677dd" fill-opacity="0.666667" stroke="#6677dd" stroke-width=".7" stroke-opacity="0.666667" points="982.7501,-87.0561 981,-82.0561 979.2501,-87.0561 982.7501,-87.0561"/>
</g>
<!-- strip&#45;ansi -->
<g id="node23" class="node">
<title>strip&#45;ansi</title>
<g id="a_node23"><a xlink:href="strip-ansi" xlink:title="strip&#45;ansi">
<polygon fill="#f6f6aa" stroke="transparent" stroke-width=".4" points="1202,-82 1148,-82 1148,-67 1202,-67 1202,-82"/>
<text text-anchor="middle" x="1175" y="-73.2" font-family="monospace" font-size="6.00" fill="#000000">strip&#45;ansi</text>
</a>
</g>
</g>
<!-- src/looks/style.js&#45;&gt;strip&#45;ansi -->
<g id="edge18" class="edge">
<title>src/looks/style.js&#45;&gt;strip&#45;ansi</title>
<path fill="none" stroke="#6677dd" stroke-width=".7" stroke-opacity="0.666667" d="M1008.384,-121C1061.8602,-121 1175,-121 1175,-121 1175,-121 1175,-87.1785 1175,-87.1785"/>
<polygon fill="#6677dd" fill-opacity="0.666667" stroke="#6677dd" stroke-width=".7" stroke-opacity="0.666667" points="1176.7501,-87.1785 1175,-82.1785 1173.2501,-87.1786 1176.7501,-87.1785"/>
</g>
<!-- src/components/Failures.js -->
<g id="node6" class="node">
<title>src/components/Failures.js</title>
<g id="a_node6"><a xlink:href="src/components/Failures.js" xlink:title="Failures.js">
<polygon fill="#f6f6aa" stroke="transparent" stroke-width=".4" points="692,-189 634,-189 634,-174 692,-174 692,-189"/>
<text text-anchor="middle" x="663" y="-180.2" font-family="monospace" font-size="6.00" fill="#000000">Failures.js</text>
</a>
</g>
</g>
<!-- src/components/Failures.js&#45;&gt;src/looks/style.js -->
<g id="edge2" class="edge">
<title>src/components/Failures.js&#45;&gt;src/looks/style.js</title>
<path fill="none" stroke="#6677dd" stroke-width=".7" stroke-opacity="0.666667" d="M682.5,-173.8376C682.5,-157.5579 682.5,-121 682.5,-121 682.5,-121 948.9836,-121 948.9836,-121"/>
<polygon fill="#6677dd" fill-opacity="0.666667" stroke="#6677dd" stroke-width=".7" stroke-opacity="0.666667" points="948.9837,-122.7501 953.9836,-121 948.9836,-119.2501 948.9837,-122.7501"/>
</g>
<!-- src/components/Loading.js -->
<g id="node7" class="node">
<title>src/components/Loading.js</title>
<g id="a_node7"><a xlink:href="src/components/Loading.js" xlink:title="Loading.js">
<polygon fill="#f6f6aa" stroke="transparent" stroke-width=".4" points="616,-189 562,-189 562,-174 616,-174 616,-189"/>
<text text-anchor="middle" x="589" y="-180.2" font-family="monospace" font-size="6.00" fill="#000000">Loading.js</text>
</a>
</g>
</g>
<!-- src/components/Log.js -->
<g id="node8" class="node">
<title>src/components/Log.js</title>
<g id="a_node8"><a xlink:href="src/components/Log.js" xlink:title="Log.js">
<polygon fill="#f6f6aa" stroke="transparent" stroke-width=".4" points="1124,-189 1070,-189 1070,-174 1124,-174 1124,-189"/>
<text text-anchor="middle" x="1097" y="-180.2" font-family="monospace" font-size="6.00" fill="#000000">Log.js</text>
</a>
</g>
</g>
<!-- src/components/Log.js&#45;&gt;src/looks/style.js -->
<g id="edge3" class="edge">
<title>src/components/Log.js&#45;&gt;src/looks/style.js</title>
<path fill="none" stroke="#6677dd" stroke-width=".7" stroke-opacity="0.666667" d="M1097,-173.7534C1097,-159.1497 1097,-129 1097,-129 1097,-129 1013.1968,-129 1013.1968,-129"/>
<polygon fill="#6677dd" fill-opacity="0.666667" stroke="#6677dd" stroke-width=".7" stroke-opacity="0.666667" points="1013.1969,-127.2501 1008.1968,-129 1013.1968,-130.7501 1013.1969,-127.2501"/>
</g>
<!-- src/components/Report.js -->
<g id="node9" class="node">
<title>src/components/Report.js</title>
<g id="a_node9"><a xlink:href="src/components/Report.js" xlink:title="Report.js">
<polygon fill="#f6f6aa" stroke="transparent" stroke-width=".4" points="1052,-189 998,-189 998,-174 1052,-174 1052,-189"/>
<text text-anchor="middle" x="1025" y="-180.2" font-family="monospace" font-size="6.00" fill="#000000">Report.js</text>
</a>
</g>
</g>
<!-- src/components/Report.js&#45;&gt;src/looks/style.js -->
<g id="edge4" class="edge">
<title>src/components/Report.js&#45;&gt;src/looks/style.js</title>
<path fill="none" stroke="#6677dd" stroke-width=".7" stroke-opacity="0.666667" d="M1003,-173.7134C1003,-173.7134 1003,-138.2204 1003,-138.2204"/>
<polygon fill="#6677dd" fill-opacity="0.666667" stroke="#6677dd" stroke-width=".7" stroke-opacity="0.666667" points="1004.7501,-138.2204 1003,-133.2204 1001.2501,-138.2205 1004.7501,-138.2204"/>
</g>
<!-- src/components/Summary.js -->
<g id="node10" class="node">
<title>src/components/Summary.js</title>
<g id="a_node10"><a xlink:href="src/components/Summary.js" xlink:title="Summary.js">
<polygon fill="#f6f6aa" stroke="transparent" stroke-width=".4" points="980,-189 926,-189 926,-174 980,-174 980,-189"/>
<text text-anchor="middle" x="953" y="-180.2" font-family="monospace" font-size="6.00" fill="#000000">Summary.js</text>
</a>
</g>
</g>
<!-- src/components/Summary.js&#45;&gt;src/looks/style.js -->
<g id="edge5" class="edge">
<title>src/components/Summary.js&#45;&gt;src/looks/style.js</title>
<path fill="none" stroke="#6677dd" stroke-width=".7" stroke-opacity="0.666667" d="M967,-173.7134C967,-173.7134 967,-138.2204 967,-138.2204"/>
<polygon fill="#6677dd" fill-opacity="0.666667" stroke="#6677dd" stroke-width=".7" stroke-opacity="0.666667" points="968.7501,-138.2204 967,-133.2204 965.2501,-138.2205 968.7501,-138.2204"/>
</g>
<!-- src/components/Title.js -->
<g id="node11" class="node">
<title>src/components/Title.js</title>
<g id="a_node11"><a xlink:href="src/components/Title.js" xlink:title="Title.js">
<polygon fill="#f6f6aa" stroke="transparent" stroke-width=".4" points="908,-189 854,-189 854,-174 908,-174 908,-189"/>
<text text-anchor="middle" x="881" y="-180.2" font-family="monospace" font-size="6.00" fill="#000000">Title.js</text>
</a>
</g>
</g>
<!-- src/components/Title.js&#45;&gt;src/looks/style.js -->
<g id="edge6" class="edge">
<title>src/components/Title.js&#45;&gt;src/looks/style.js</title>
<path fill="none" stroke="#6677dd" stroke-width=".7" stroke-opacity="0.666667" d="M881,-173.901C881,-159.5754 881,-130 881,-130 881,-130 948.9386,-130 948.9386,-130"/>
<polygon fill="#6677dd" fill-opacity="0.666667" stroke="#6677dd" stroke-width=".7" stroke-opacity="0.666667" points="948.9386,-131.7501 953.9386,-130 948.9385,-128.2501 948.9386,-131.7501"/>
</g>
<!-- src/events.js -->
<g id="node12" class="node">
<title>src/events.js</title>
<g id="a_node12"><a xlink:href="src/events.js" xlink:title="events.js">
<polygon fill="#f6f6aa" stroke="transparent" stroke-width=".4" points="70,-245 16,-245 16,-230 70,-230 70,-245"/>
<text text-anchor="middle" x="43" y="-236.2" font-family="monospace" font-size="6.00" fill="#000000">events.js</text>
</a>
</g>
</g>
<!-- src/index.js -->
<g id="node13" class="node">
<title>src/index.js</title>
<g id="a_node13"><a xlink:href="src/index.js" xlink:title="index.js">
<polygon fill="#f6f6aa" stroke="transparent" stroke-width=".4" points="360,-296 306,-296 306,-281 360,-281 360,-296"/>
<text text-anchor="middle" x="333" y="-287.2" font-family="monospace" font-size="6.00" fill="#000000">index.js</text>
</a>
</g>
</g>
<!-- src/index.js&#45;&gt;src/events.js -->
<g id="edge7" class="edge">
<title>src/index.js&#45;&gt;src/events.js</title>
<path fill="none" stroke="#6677dd" stroke-width=".7" stroke-opacity="0.666667" d="M305.9779,-293C233.9854,-293 43,-293 43,-293 43,-293 43,-250.217 43,-250.217"/>
<polygon fill="#6677dd" fill-opacity="0.666667" stroke="#6677dd" stroke-width=".7" stroke-opacity="0.666667" points="44.7501,-250.217 43,-245.217 41.2501,-250.2171 44.7501,-250.217"/>
</g>
<!-- src/io/clock.js -->
<g id="node14" class="node">
<title>src/io/clock.js</title>
<g id="a_node14"><a xlink:href="src/io/clock.js" xlink:title="clock.js">
<polygon fill="#f6f6aa" stroke="transparent" stroke-width=".4" points="286,-245 232,-245 232,-230 286,-230 286,-245"/>
<text text-anchor="middle" x="259" y="-236.2" font-family="monospace" font-size="6.00" fill="#000000">clock.js</text>
</a>
</g>
</g>
<!-- src/index.js&#45;&gt;src/io/clock.js -->
<g id="edge8" class="edge">
<title>src/index.js&#45;&gt;src/io/clock.js</title>
<path fill="none" stroke="#6677dd" stroke-width=".7" stroke-opacity="0.666667" d="M305.8653,-284C284.7458,-284 259,-284 259,-284 259,-284 259,-250.1785 259,-250.1785"/>
<polygon fill="#6677dd" fill-opacity="0.666667" stroke="#6677dd" stroke-width=".7" stroke-opacity="0.666667" points="260.7501,-250.1785 259,-245.1785 257.2501,-250.1786 260.7501,-250.1785"/>
</g>
<!-- src/io/print.js -->
<g id="node15" class="node">
<title>src/io/print.js</title>
<g id="a_node15"><a xlink:href="src/io/print.js" xlink:title="print.js">
<polygon fill="#f6f6aa" stroke="transparent" stroke-width=".4" points="214,-245 160,-245 160,-230 214,-230 214,-245"/>
<text text-anchor="middle" x="187" y="-236.2" font-family="monospace" font-size="6.00" fill="#000000">print.js</text>
</a>
</g>
</g>
<!-- src/index.js&#45;&gt;src/io/print.js -->
<g id="edge9" class="edge">
<title>src/index.js&#45;&gt;src/io/print.js</title>
<path fill="none" stroke="#6677dd" stroke-width=".7" stroke-opacity="0.666667" d="M305.8807,-287C263.6586,-287 187,-287 187,-287 187,-287 187,-250.2344 187,-250.2344"/>
<polygon fill="#6677dd" fill-opacity="0.666667" stroke="#6677dd" stroke-width=".7" stroke-opacity="0.666667" points="188.7501,-250.2343 187,-245.2344 185.2501,-250.2344 188.7501,-250.2343"/>
</g>
<!-- src/io/resize.js -->
<g id="node16" class="node">
<title>src/io/resize.js</title>
<g id="a_node16"><a xlink:href="src/io/resize.js" xlink:title="resize.js">
<polygon fill="#f6f6aa" stroke="transparent" stroke-width=".4" points="142,-245 88,-245 88,-230 142,-230 142,-245"/>
<text text-anchor="middle" x="115" y="-236.2" font-family="monospace" font-size="6.00" fill="#000000">resize.js</text>
</a>
</g>
</g>
<!-- src/index.js&#45;&gt;src/io/resize.js -->
<g id="edge10" class="edge">
<title>src/index.js&#45;&gt;src/io/resize.js</title>
<path fill="none" stroke="#6677dd" stroke-width=".7" stroke-opacity="0.666667" d="M305.8309,-290C247.3922,-290 115,-290 115,-290 115,-290 115,-250.2466 115,-250.2466"/>
<polygon fill="#6677dd" fill-opacity="0.666667" stroke="#6677dd" stroke-width=".7" stroke-opacity="0.666667" points="116.7501,-250.2465 115,-245.2466 113.2501,-250.2466 116.7501,-250.2465"/>
</g>
<!-- src/logEvent.js -->
<g id="node17" class="node">
<title>src/logEvent.js</title>
<g id="a_node17"><a xlink:href="src/logEvent.js" xlink:title="logEvent.js">
<polygon fill="#f6f6aa" stroke="transparent" stroke-width=".4" points="362,-245 304,-245 304,-230 362,-230 362,-245"/>
<text text-anchor="middle" x="333" y="-236.2" font-family="monospace" font-size="6.00" fill="#000000">logEvent.js</text>
</a>
</g>
</g>
<!-- src/index.js&#45;&gt;src/logEvent.js -->
<g id="edge11" class="edge">
<title>src/index.js&#45;&gt;src/logEvent.js</title>
<path fill="none" stroke="#6677dd" stroke-width=".7" stroke-opacity="0.666667" d="M333,-280.9748C333,-280.9748 333,-250.0561 333,-250.0561"/>
<polygon fill="#6677dd" fill-opacity="0.666667" stroke="#6677dd" stroke-width=".7" stroke-opacity="0.666667" points="334.7501,-250.0561 333,-245.0561 331.2501,-250.0561 334.7501,-250.0561"/>
</g>
<!-- src/options.js -->
<g id="node18" class="node">
<title>src/options.js</title>
<g id="a_node18"><a xlink:href="src/options.js" xlink:title="options.js">
<polygon fill="#f6f6aa" stroke="transparent" stroke-width=".4" points="673,-31 619,-31 619,-16 673,-16 673,-31"/>
<text text-anchor="middle" x="646" y="-22.2" font-family="monospace" font-size="6.00" fill="#000000">options.js</text>
</a>
</g>
</g>
<!-- src/index.js&#45;&gt;src/options.js -->
<g id="edge12" class="edge">
<title>src/index.js&#45;&gt;src/options.js</title>
<path fill="none" stroke="#6677dd" stroke-width=".7" stroke-opacity="0.666667" d="M360.0857,-287C432.7441,-287 626.5,-287 626.5,-287 626.5,-287 626.5,-36.1019 626.5,-36.1019"/>
<polygon fill="#6677dd" fill-opacity="0.666667" stroke="#6677dd" stroke-width=".7" stroke-opacity="0.666667" points="628.2501,-36.1018 626.5,-31.1019 624.7501,-36.1019 628.2501,-36.1018"/>
</g>
<!-- src/render.js -->
<g id="node19" class="node">
<title>src/render.js</title>
<g id="a_node19"><a xlink:href="src/render.js" xlink:title="render.js">
<polygon fill="#f6f6aa" stroke="transparent" stroke-width=".4" points="800,-245 746,-245 746,-230 800,-230 800,-245"/>
<text text-anchor="middle" x="773" y="-236.2" font-family="monospace" font-size="6.00" fill="#000000">render.js</text>
</a>
</g>
</g>
<!-- src/index.js&#45;&gt;src/render.js -->
<g id="edge13" class="edge">
<title>src/index.js&#45;&gt;src/render.js</title>
<path fill="none" stroke="#6677dd" stroke-width=".7" stroke-opacity="0.666667" d="M360.1919,-290C456.1218,-290 773,-290 773,-290 773,-290 773,-250.2466 773,-250.2466"/>
<polygon fill="#6677dd" fill-opacity="0.666667" stroke="#6677dd" stroke-width=".7" stroke-opacity="0.666667" points="774.7501,-250.2465 773,-245.2466 771.2501,-250.2466 774.7501,-250.2465"/>
</g>
<!-- src/states/state.js -->
<g id="node20" class="node">
<title>src/states/state.js</title>
<g id="a_node20"><a xlink:href="src/states/state.js" xlink:title="state.js">
<polygon fill="#f6f6aa" stroke="transparent" stroke-width=".4" points="454,-245 400,-245 400,-230 454,-230 454,-245"/>
<text text-anchor="middle" x="427" y="-236.2" font-family="monospace" font-size="6.00" fill="#000000">state.js</text>
</a>
</g>
</g>
<!-- src/index.js&#45;&gt;src/states/state.js -->
<g id="edge14" class="edge">
<title>src/index.js&#45;&gt;src/states/state.js</title>
<path fill="none" stroke="#6677dd" stroke-width=".7" stroke-opacity="0.666667" d="M360.1887,-284C387.9505,-284 427,-284 427,-284 427,-284 427,-250.1785 427,-250.1785"/>
<polygon fill="#6677dd" fill-opacity="0.666667" stroke="#6677dd" stroke-width=".7" stroke-opacity="0.666667" points="428.7501,-250.1785 427,-245.1785 425.2501,-250.1786 428.7501,-250.1785"/>
</g>
<!-- tap&#45;parser -->
<g id="node21" class="node">
<title>tap&#45;parser</title>
<g id="a_node21"><a xlink:href="tap-parser" xlink:title="tap&#45;parser">
<polygon fill="#f6f6aa" stroke="transparent" stroke-width=".4" points="1202,-245 1148,-245 1148,-230 1202,-230 1202,-245"/>
<text text-anchor="middle" x="1175" y="-236.2" font-family="monospace" font-size="6.00" fill="#000000">tap&#45;parser</text>
</a>
</g>
</g>
<!-- src/index.js&#45;&gt;tap&#45;parser -->
<g id="edge15" class="edge">
<title>src/index.js&#45;&gt;tap&#45;parser</title>
<path fill="none" stroke="#6677dd" stroke-width=".7" stroke-opacity="0.666667" d="M360.0612,-293C504.1822,-293 1175,-293 1175,-293 1175,-293 1175,-250.217 1175,-250.217"/>
<polygon fill="#6677dd" fill-opacity="0.666667" stroke="#6677dd" stroke-width=".7" stroke-opacity="0.666667" points="1176.7501,-250.217 1175,-245.217 1173.2501,-250.2171 1176.7501,-250.217"/>
</g>
<!-- src/render.js&#45;&gt;src/components/Entries.js -->
<g id="edge22" class="edge">
<title>src/render.js&#45;&gt;src/components/Entries.js</title>
<path fill="none" stroke="#6677dd" stroke-width=".7" stroke-opacity="0.666667" d="M791,-229.7134C791,-229.7134 791,-194.2204 791,-194.2204"/>
<polygon fill="#6677dd" fill-opacity="0.666667" stroke="#6677dd" stroke-width=".7" stroke-opacity="0.666667" points="792.7501,-194.2204 791,-189.2204 789.2501,-194.2205 792.7501,-194.2204"/>
</g>
<!-- src/render.js&#45;&gt;src/components/Entry.js -->
<g id="edge23" class="edge">
<title>src/render.js&#45;&gt;src/components/Entry.js</title>
<path fill="none" stroke="#6677dd" stroke-width=".7" stroke-opacity="0.666667" d="M755,-229.7134C755,-229.7134 755,-194.2204 755,-194.2204"/>
<polygon fill="#6677dd" fill-opacity="0.666667" stroke="#6677dd" stroke-width=".7" stroke-opacity="0.666667" points="756.7501,-194.2204 755,-189.2204 753.2501,-194.2205 756.7501,-194.2204"/>
</g>
<!-- src/render.js&#45;&gt;src/looks/style.js -->
<g id="edge30" class="edge">
<title>src/render.js&#45;&gt;src/looks/style.js</title>
<path fill="none" stroke="#6677dd" stroke-width=".7" stroke-opacity="0.666667" d="M773,-229.9049C773,-204.9398 773,-127 773,-127 773,-127 948.8076,-127 948.8076,-127"/>
<polygon fill="#6677dd" fill-opacity="0.666667" stroke="#6677dd" stroke-width=".7" stroke-opacity="0.666667" points="948.8077,-128.7501 953.8076,-127 948.8076,-125.2501 948.8077,-128.7501"/>
</g>
<!-- src/render.js&#45;&gt;src/components/Failures.js -->
<g id="edge24" class="edge">
<title>src/render.js&#45;&gt;src/components/Failures.js</title>
<path fill="none" stroke="#6677dd" stroke-width=".7" stroke-opacity="0.666667" d="M745.809,-236C713.2348,-236 663,-236 663,-236 663,-236 663,-194.078 663,-194.078"/>
<polygon fill="#6677dd" fill-opacity="0.666667" stroke="#6677dd" stroke-width=".7" stroke-opacity="0.666667" points="664.7501,-194.078 663,-189.078 661.2501,-194.078 664.7501,-194.078"/>
</g>
<!-- src/render.js&#45;&gt;src/components/Loading.js -->
<g id="edge25" class="edge">
<title>src/render.js&#45;&gt;src/components/Loading.js</title>
<path fill="none" stroke="#6677dd" stroke-width=".7" stroke-opacity="0.666667" d="M745.8502,-242C694.6675,-242 589,-242 589,-242 589,-242 589,-194.1624 589,-194.1624"/>
<polygon fill="#6677dd" fill-opacity="0.666667" stroke="#6677dd" stroke-width=".7" stroke-opacity="0.666667" points="590.7501,-194.1623 589,-189.1624 587.2501,-194.1624 590.7501,-194.1623"/>
</g>
<!-- src/render.js&#45;&gt;src/components/Log.js -->
<g id="edge26" class="edge">
<title>src/render.js&#45;&gt;src/components/Log.js</title>
<path fill="none" stroke="#6677dd" stroke-width=".7" stroke-opacity="0.666667" d="M800.0668,-242C877.9369,-242 1097,-242 1097,-242 1097,-242 1097,-194.1624 1097,-194.1624"/>
<polygon fill="#6677dd" fill-opacity="0.666667" stroke="#6677dd" stroke-width=".7" stroke-opacity="0.666667" points="1098.7501,-194.1623 1097,-189.1624 1095.2501,-194.1624 1098.7501,-194.1623"/>
</g>
<!-- src/render.js&#45;&gt;src/components/Report.js -->
<g id="edge27" class="edge">
<title>src/render.js&#45;&gt;src/components/Report.js</title>
<path fill="none" stroke="#6677dd" stroke-width=".7" stroke-opacity="0.666667" d="M800.4481,-239C865.761,-239 1025,-239 1025,-239 1025,-239 1025,-194.0171 1025,-194.0171"/>
<polygon fill="#6677dd" fill-opacity="0.666667" stroke="#6677dd" stroke-width=".7" stroke-opacity="0.666667" points="1026.7501,-194.0171 1025,-189.0171 1023.2501,-194.0172 1026.7501,-194.0171"/>
</g>
<!-- src/render.js&#45;&gt;src/components/Summary.js -->
<g id="edge28" class="edge">
<title>src/render.js&#45;&gt;src/components/Summary.js</title>
<path fill="none" stroke="#6677dd" stroke-width=".7" stroke-opacity="0.666667" d="M800.3381,-236C850.6926,-236 953,-236 953,-236 953,-236 953,-194.078 953,-194.078"/>
<polygon fill="#6677dd" fill-opacity="0.666667" stroke="#6677dd" stroke-width=".7" stroke-opacity="0.666667" points="954.7501,-194.078 953,-189.078 951.2501,-194.078 954.7501,-194.078"/>
</g>
<!-- src/render.js&#45;&gt;src/components/Title.js -->
<g id="edge29" class="edge">
<title>src/render.js&#45;&gt;src/components/Title.js</title>
<path fill="none" stroke="#6677dd" stroke-width=".7" stroke-opacity="0.666667" d="M800.253,-233C832.2471,-233 881,-233 881,-233 881,-233 881,-194.099 881,-194.099"/>
<polygon fill="#6677dd" fill-opacity="0.666667" stroke="#6677dd" stroke-width=".7" stroke-opacity="0.666667" points="882.7501,-194.099 881,-189.099 879.2501,-194.099 882.7501,-194.099"/>
</g>
<!-- src/results/resolvePath.js -->
<g id="node24" class="node">
<title>src/results/resolvePath.js</title>
<g id="a_node24"><a xlink:href="src/results/resolvePath.js" xlink:title="resolvePath.js">
<polygon fill="#f6f6aa" stroke="transparent" stroke-width=".4" points="451.5,-133 382.5,-133 382.5,-118 451.5,-118 451.5,-133"/>
<text text-anchor="middle" x="417" y="-124.2" font-family="monospace" font-size="6.00" fill="#000000">resolvePath.js</text>
</a>
</g>
</g>
<!-- src/states/state.js&#45;&gt;src/results/resolvePath.js -->
<g id="edge35" class="edge">
<title>src/states/state.js&#45;&gt;src/results/resolvePath.js</title>
<path fill="none" stroke="#6677dd" stroke-width=".7" stroke-opacity="0.666667" d="M399.9056,-237C394.3974,-237 390.25,-237 390.25,-237 390.25,-237 390.25,-138.1638 390.25,-138.1638"/>
<polygon fill="#6677dd" fill-opacity="0.666667" stroke="#6677dd" stroke-width=".7" stroke-opacity="0.666667" points="392.0001,-138.1638 390.25,-133.1638 388.5001,-138.1639 392.0001,-138.1638"/>
</g>
<!-- src/results/tree.js -->
<g id="node26" class="node">
<title>src/results/tree.js</title>
<g id="a_node26"><a xlink:href="src/results/tree.js" xlink:title="tree.js">
<polygon fill="#f6f6aa" stroke="transparent" stroke-width=".4" points="524,-133 470,-133 470,-118 524,-118 524,-133"/>
<text text-anchor="middle" x="497" y="-124.2" font-family="monospace" font-size="6.00" fill="#000000">tree.js</text>
</a>
</g>
</g>
<!-- src/states/state.js&#45;&gt;src/results/tree.js -->
<g id="edge36" class="edge">
<title>src/states/state.js&#45;&gt;src/results/tree.js</title>
<path fill="none" stroke="#6677dd" stroke-width=".7" stroke-opacity="0.666667" d="M454.2813,-239C457.3125,-239 459.3333,-239 459.3333,-239 459.3333,-239 459.3333,-123 459.3333,-123 459.3333,-123 464.6259,-123 464.6259,-123"/>
<polygon fill="#6677dd" fill-opacity="0.666667" stroke="#6677dd" stroke-width=".7" stroke-opacity="0.666667" points="464.626,-124.7501 469.6259,-123 464.6259,-121.2501 464.626,-124.7501"/>
</g>
<!-- src/states/Failure.js -->
<g id="node27" class="node">
<title>src/states/Failure.js</title>
<g id="a_node27"><a xlink:href="src/states/Failure.js" xlink:title="Failure.js">
<polygon fill="#f6f6aa" stroke="transparent" stroke-width=".4" points="452,-189 398,-189 398,-174 452,-174 452,-189"/>
<text text-anchor="middle" x="425" y="-180.2" font-family="monospace" font-size="6.00" fill="#000000">Failure.js</text>
</a>
</g>
</g>
<!-- src/states/state.js&#45;&gt;src/states/Failure.js -->
<g id="edge37" class="edge">
<title>src/states/state.js&#45;&gt;src/states/Failure.js</title>
<path fill="none" stroke="#6677dd" stroke-width=".7" stroke-opacity="0.666667" d="M426,-229.7134C426,-229.7134 426,-194.2204 426,-194.2204"/>
<polygon fill="#6677dd" fill-opacity="0.666667" stroke="#6677dd" stroke-width=".7" stroke-opacity="0.666667" points="427.7501,-194.2204 426,-189.2204 424.2501,-194.2205 427.7501,-194.2204"/>
</g>
<!-- src/states/Log.js -->
<g id="node28" class="node">
<title>src/states/Log.js</title>
<g id="a_node28"><a xlink:href="src/states/Log.js" xlink:title="Log.js">
<polygon fill="#f6f6aa" stroke="transparent" stroke-width=".4" points="524,-189 470,-189 470,-174 524,-174 524,-189"/>
<text text-anchor="middle" x="497" y="-180.2" font-family="monospace" font-size="6.00" fill="#000000">Log.js</text>
</a>
</g>
</g>
<!-- src/states/state.js&#45;&gt;src/states/Log.js -->
<g id="edge38" class="edge">
<title>src/states/state.js&#45;&gt;src/states/Log.js</title>
<path fill="none" stroke="#6677dd" stroke-width=".7" stroke-opacity="0.666667" d="M454.2643,-233C473.9191,-233 497,-233 497,-233 497,-233 497,-194.099 497,-194.099"/>
<polygon fill="#6677dd" fill-opacity="0.666667" stroke="#6677dd" stroke-width=".7" stroke-opacity="0.666667" points="498.7501,-194.099 497,-189.099 495.2501,-194.099 498.7501,-194.099"/>
</g>
<!-- src/looks/theme.js&#45;&gt;chalk -->
<g id="edge20" class="edge">
<title>src/looks/theme.js&#45;&gt;chalk</title>
<path fill="none" stroke="#6677dd" stroke-width=".7" stroke-opacity="0.666667" d="M972,-66.9871C972,-59.4652 972,-49 972,-49 972,-49 1238,-49 1238,-49 1238,-49 1238,-36.0129 1238,-36.0129"/>
<polygon fill="#6677dd" fill-opacity="0.666667" stroke="#6677dd" stroke-width=".7" stroke-opacity="0.666667" points="1239.7501,-36.0129 1238,-31.0129 1236.2501,-36.013 1239.7501,-36.0129"/>
</g>
<!-- src/looks/theme.js&#45;&gt;fs -->
<g id="edge21" class="edge">
<title>src/looks/theme.js&#45;&gt;fs</title>
<path fill="none" stroke="#6677dd" stroke-width=".7" stroke-opacity="0.666667" d="M990,-66.901C990,-52.5754 990,-23 990,-23 990,-23 1142.7026,-23 1142.7026,-23"/>
<polygon fill="#6677dd" fill-opacity="0.666667" stroke="#6677dd" stroke-width=".7" stroke-opacity="0.666667" points="1142.7026,-24.7501 1147.7026,-23 1142.7026,-21.2501 1142.7026,-24.7501"/>
</g>
<!-- src/looks/theme.js&#45;&gt;src/options.js -->
<g id="edge19" class="edge">
<title>src/looks/theme.js&#45;&gt;src/options.js</title>
<path fill="none" stroke="#6677dd" stroke-width=".7" stroke-opacity="0.666667" d="M953.9207,-74C875.4558,-74 653.5,-74 653.5,-74 653.5,-74 653.5,-36.3906 653.5,-36.3906"/>
<polygon fill="#6677dd" fill-opacity="0.666667" stroke="#6677dd" stroke-width=".7" stroke-opacity="0.666667" points="655.2501,-36.3906 653.5,-31.3906 651.7501,-36.3907 655.2501,-36.3906"/>
</g>
<!-- src/results/status.js -->
<g id="node25" class="node">
<title>src/results/status.js</title>
<g id="a_node25"><a xlink:href="src/results/status.js" xlink:title="status.js">
<polygon fill="#f6f6aa" stroke="transparent" stroke-width=".4" points="524,-82 470,-82 470,-67 524,-67 524,-82"/>
<text text-anchor="middle" x="497" y="-73.2" font-family="monospace" font-size="6.00" fill="#000000">status.js</text>
</a>
</g>
</g>
<!-- src/results/tree.js&#45;&gt;src/results/status.js -->
<g id="edge31" class="edge">
<title>src/results/tree.js&#45;&gt;src/results/status.js</title>
<path fill="none" stroke="#6677dd" stroke-width=".7" stroke-opacity="0.666667" d="M497,-117.9748C497,-117.9748 497,-87.0561 497,-87.0561"/>
<polygon fill="#6677dd" fill-opacity="0.666667" stroke="#6677dd" stroke-width=".7" stroke-opacity="0.666667" points="498.7501,-87.0561 497,-82.0561 495.2501,-87.0561 498.7501,-87.0561"/>
</g>
<!-- src/states/Failure.js&#45;&gt;src/results/resolvePath.js -->
<g id="edge32" class="edge">
<title>src/states/Failure.js&#45;&gt;src/results/resolvePath.js</title>
<path fill="none" stroke="#6677dd" stroke-width=".7" stroke-opacity="0.666667" d="M424.75,-173.7134C424.75,-173.7134 424.75,-138.2204 424.75,-138.2204"/>
<polygon fill="#6677dd" fill-opacity="0.666667" stroke="#6677dd" stroke-width=".7" stroke-opacity="0.666667" points="426.5001,-138.2204 424.75,-133.2204 423.0001,-138.2205 426.5001,-138.2204"/>
</g>
<!-- src/states/Log.js&#45;&gt;src/results/resolvePath.js -->
<g id="edge33" class="edge">
<title>src/states/Log.js&#45;&gt;src/results/resolvePath.js</title>
<path fill="none" stroke="#6677dd" stroke-width=".7" stroke-opacity="0.666667" d="M469.7188,-181C466.6875,-181 464.6667,-181 464.6667,-181 464.6667,-181 464.6667,-128 464.6667,-128 464.6667,-128 456.6415,-128 456.6415,-128"/>
<polygon fill="#6677dd" fill-opacity="0.666667" stroke="#6677dd" stroke-width=".7" stroke-opacity="0.666667" points="456.6416,-126.2501 451.6415,-128 456.6415,-129.7501 456.6416,-126.2501"/>
</g>
<!-- src/states/Log.js&#45;&gt;src/results/tree.js -->
<g id="edge34" class="edge">
<title>src/states/Log.js&#45;&gt;src/results/tree.js</title>
<path fill="none" stroke="#6677dd" stroke-width=".7" stroke-opacity="0.666667" d="M497,-173.7134C497,-173.7134 497,-138.2204 497,-138.2204"/>
<polygon fill="#6677dd" fill-opacity="0.666667" stroke="#6677dd" stroke-width=".7" stroke-opacity="0.666667" points="498.7501,-138.2204 497,-133.2204 495.2501,-138.2205 498.7501,-138.2204"/>
</g>
</g>
</svg>
